<svg xmlns="http://www.w3.org/2000/svg" width="333.006" height="299.052" viewBox="0 0 333.006 299.052">
  <path id="circle1" d="M1.175,200.176c-5.44-36.84,8.635-73.7,28.354-104.222C49.483,65.063,74.895,35.847,110.512,23.81c4.145-1.4,8.349-2.628,12.583-3.728,59.3-15.4,121.386,1.709,170.721,37.109,9.892,7.1,19.37,14.967,26.859,24.566,22.879,29.325,9.673,63.652-5.484,92.535a405.6,405.6,0,0,0-32.113,80.24c-5.4,19.588-16.432,42.159-35.9,51.168-17.358,8.029-45.241,10.425-63.371,4.333,0,0-60.056-20.183-75.849-30.547,0,0-41.975-17.455-57.794-21.819C50.16,257.667,7.829,245.236,1.175,200.176Z" transform="translate(0.003 -14.406)"/>
</svg>
