<svg xmlns="http://www.w3.org/2000/svg" width="333" height="327.864" viewBox="0 0 333 327.864">
  <path id="circle" d="M-302.064,637.475c-.447-16.862.434-33.657,3.7-50.208,3.559-18.064,13.352-33.419,22.491-48.977,5.948-10.128,12.676-19.759,19.592-29.264,9.122-12.537,22.3-20.011,34.587-28.724,23.9-16.952,51.005-25.228,79.414-29.964,9.184-1.53,18.611-.894,27.858-.222,17.831,1.3,35.477,4.043,52.388,10.179,19.881,7.213,38.774,16.3,54.951,30.255,19.171,16.541,29.1,38.325,34.662,62.365,4.314,18.63,3.811,37.467,1.528,56.384-1.444,11.976-1.949,24.1-4.875,35.831C19.2,665.264,8.339,682.388-4.392,698.461a221.418,221.418,0,0,1-60.87,53.544c-17.384,10.318-35.223,20.141-55.455,23.155-31.539,4.7-62.477,1.593-92.314-10.291-23.129-9.212-45.357-20-62.655-38.527-15.428-16.524-24.62-35.814-25.489-58.934C-301.549,657.432-301.885,647.455-302.064,637.475Z" transform="translate(302.172 -449.394)"/>
</svg>
