<svg xmlns="http://www.w3.org/2000/svg" width="73.595" height="60" viewBox="0 0 73.595 60"><defs><style>.a{fill:#fec500;}.b{fill:#616161;}.c{fill:#b2bfcb;}</style></defs><path class="a" d="M-481.812-167.825a2.1,2.1,0,0,0-1.32.453,12.63,12.63,0,0,0-1.7,1.485c-1.621,1.608-3.251,3.209-4.784,4.9-1.664,1.836-3.2,3.782-4.688,5.762-.257.341-.518.679-.78,1.016a.493.493,0,0,1-.748.143q-1.5-.92-2.992-1.847c-.321-.2-.362-.471-.126-.812q2.286-3.3,4.576-6.6,1.565-2.245,3.156-4.471c1.1-1.553,2.388-2.961,3.619-4.411,2.272-2.675,4.546-5.349,6.849-8,1.156-1.33,2.409-2.573,3.646-3.829,1.858-1.887,3.82-3.666,5.722-5.509a1.8,1.8,0,0,1,1.884-.354,4.009,4.009,0,0,1,.966.454c3.376,1.96,6.71,3.989,10.052,6.006,3.629,2.189,7.169,4.519,10.754,6.779,2.567,1.619,5.115,3.267,7.6,5.007a2.938,2.938,0,0,1,1.38,2.011,3.355,3.355,0,0,1-.46,2.213c-.728,1.255-1.475,2.5-2.228,3.739q-7.168,11.814-14.63,23.444-2.21,3.436-4.552,6.787c-.049.07-.1.141-.15.208a.822.822,0,0,1-1.058.246,7.17,7.17,0,0,1-.958-.573c-4.139-2.858-8.308-5.673-12.439-8.543a1.022,1.022,0,0,1-.277-1.57c1.479-2.068,2.745-4.268,4.052-6.443,1.4-2.329,2.726-4.7,3.914-7.142a4.224,4.224,0,0,0,.181-.428.961.961,0,0,0-.261-1.1,45.6,45.6,0,0,0-5.424-4.467,43.02,43.02,0,0,0-8.072-4.461A1.551,1.551,0,0,0-481.812-167.825Z" transform="translate(499.098 192.906)"/><path class="b" d="M254.892-246.536c.281-.321.555-.636.831-.948q1.081-1.221,2.164-2.44c.629-.711,1.352-1.327,2.039-1.978.347-.329.474-.322.872-.043,5.451,3.816,10.856,7.7,16.091,11.806,2.321,1.822,4.575,3.727,6.858,5.6,3.011,2.465,5.88,5.094,8.815,7.648a2.468,2.468,0,0,1,.659.834,1.257,1.257,0,0,1-.019,1.144,6.153,6.153,0,0,1-.675,1c-3.063,3.926-6.294,7.711-9.567,11.462-3.176,3.639-6.309,7.315-9.552,10.9-1.871,2.066-3.842,4.04-5.784,6.039q-.722.743-1.44,1.491a.57.57,0,0,1-.841.142,9.225,9.225,0,0,1-1.3-.894c-.77-.6-1.529-1.221-2.3-1.817-.171-.131-.147-.21-.044-.364,2.57-3.829,5.211-7.609,7.874-11.373,3.891-5.5,7.457-11.2,10.859-17.01a5.3,5.3,0,0,0,.863-2.738A3.635,3.635,0,0,0,280-230.917a21.18,21.18,0,0,0-2.432-1.719c-3.085-2.02-6.155-4.063-9.272-6.031-1.915-1.209-3.905-2.3-5.861-3.442q-3.7-2.163-7.393-4.329C255-246.466,254.953-246.5,254.892-246.536Z" transform="translate(-219.755 252.152)"/><path class="c" d="M-302.167,457.714a10.073,10.073,0,0,1,.163-2.221,7.053,7.053,0,0,1,.995-2.167c.263-.448.561-.874.867-1.295a6.046,6.046,0,0,1,1.53-1.271,8.267,8.267,0,0,1,3.513-1.326,5.213,5.213,0,0,1,1.232-.01,8.57,8.57,0,0,1,2.318.45,7.606,7.606,0,0,1,2.431,1.338,4.961,4.961,0,0,1,1.533,2.759,7.161,7.161,0,0,1,.068,2.494,12.841,12.841,0,0,1-.216,1.585A6.274,6.274,0,0,1-289,460.412a9.8,9.8,0,0,1-2.693,2.369,6.861,6.861,0,0,1-2.453,1.024,7.77,7.77,0,0,1-4.084-.455,7.35,7.35,0,0,1-2.772-1.7,3.937,3.937,0,0,1-1.128-2.607C-302.144,458.6-302.159,458.155-302.167,457.714Z" transform="translate(311.349 -416.701)"/></svg>