<svg xmlns="http://www.w3.org/2000/svg" width="195" height="180" viewBox="0 0 195 180"><defs><style>.a{font-size:18px;font-family:MicrosoftJhengHeiBold, Microsoft JhengHei;}.b{font-size:20px;font-family:Carme;}.c{fill:#fec500;}.d{fill:#616161;}.e{fill:#b2bfcb;}</style></defs><g transform="translate(-19 51)"><text class="a" transform="translate(19 124)"><tspan x="0" y="0">新石代工場</tspan></text><text class="b" transform="translate(19 40)"><tspan x="0" y="0">THE NEW </tspan><tspan x="0" y="25.2">STONE ERA </tspan><tspan x="0" y="50.4">WORKSHOP</tspan></text><g transform="translate(613.098 201.152)"><path class="c" d="M-475.609-159.866a2.851,2.851,0,0,0-1.794.616,17.158,17.158,0,0,0-2.308,2.018c-2.2,2.185-4.417,4.36-6.5,6.658-2.262,2.495-4.346,5.139-6.371,7.829-.349.464-.7.923-1.06,1.38a.669.669,0,0,1-1.016.195q-2.035-1.25-4.065-2.51c-.437-.271-.492-.64-.171-1.1q3.106-4.488,6.218-8.973,2.126-3.05,4.288-6.075c1.5-2.11,3.244-4.024,4.917-5.993,3.087-3.635,6.178-7.268,9.307-10.867,1.571-1.807,3.274-3.5,4.954-5.2,2.525-2.564,5.191-4.982,7.775-7.485a2.448,2.448,0,0,1,2.56-.481,5.449,5.449,0,0,1,1.313.617c4.587,2.663,9.118,5.421,13.659,8.16,4.931,2.974,9.741,6.141,14.612,9.212,3.488,2.2,6.951,4.44,10.33,6.8a3.993,3.993,0,0,1,1.875,2.733,4.559,4.559,0,0,1-.625,3.007c-.989,1.705-2,3.4-3.027,5.081q-9.739,16.052-19.879,31.855-3,4.669-6.186,9.222c-.066.1-.131.192-.2.283a1.116,1.116,0,0,1-1.438.335,9.748,9.748,0,0,1-1.3-.779c-5.625-3.883-11.289-7.709-16.9-11.608a1.389,1.389,0,0,1-.376-2.133c2.009-2.81,3.73-5.8,5.505-8.755,1.9-3.165,3.7-6.382,5.318-9.7a5.729,5.729,0,0,0,.246-.581,1.305,1.305,0,0,0-.355-1.492,61.963,61.963,0,0,0-7.371-6.069,58.455,58.455,0,0,0-10.969-6.062A2.107,2.107,0,0,0-475.609-159.866Z" transform="translate(0 -58.207)"/><path class="d" d="M254.892-244.521c.382-.436.754-.864,1.13-1.289q1.469-1.659,2.94-3.316c.855-.966,1.836-1.8,2.771-2.687.472-.447.644-.437,1.185-.058,7.407,5.186,14.75,10.458,21.864,16.042,3.154,2.476,6.217,5.064,9.319,7.6,4.091,3.35,7.99,6.922,11.978,10.392a3.353,3.353,0,0,1,.9,1.133,1.708,1.708,0,0,1-.026,1.554,8.362,8.362,0,0,1-.917,1.362c-4.161,5.335-8.553,10.477-13,15.574-4.315,4.945-8.573,9.94-12.979,14.8-2.543,2.808-5.22,5.489-7.86,8.206q-.981,1.01-1.957,2.026a.774.774,0,0,1-1.143.192,12.534,12.534,0,0,1-1.773-1.215c-1.046-.82-2.077-1.66-3.132-2.469-.233-.179-.2-.285-.06-.494,3.492-5.2,7.081-10.339,10.7-15.454,5.287-7.472,10.133-15.22,14.755-23.113a7.2,7.2,0,0,0,1.172-3.72,4.939,4.939,0,0,0-1.742-3.851,28.776,28.776,0,0,0-3.3-2.336c-4.191-2.744-8.363-5.52-12.6-8.2-2.6-1.643-5.307-3.123-7.964-4.677q-5.024-2.94-10.046-5.883C255.036-244.427,254.976-244.468,254.892-244.521Z" transform="translate(-706.247)"/><path class="e" d="M-302.165,460.7a13.687,13.687,0,0,1,.222-3.018,9.584,9.584,0,0,1,1.352-2.944c.358-.609.762-1.188,1.178-1.759a8.217,8.217,0,0,1,2.079-1.727,11.234,11.234,0,0,1,4.773-1.8,7.084,7.084,0,0,1,1.675-.013,11.644,11.644,0,0,1,3.149.612,10.334,10.334,0,0,1,3.3,1.819,6.741,6.741,0,0,1,2.084,3.749,9.731,9.731,0,0,1,.092,3.389,17.455,17.455,0,0,1-.293,2.154,8.526,8.526,0,0,1-1.72,3.206,13.309,13.309,0,0,1-3.659,3.219,9.322,9.322,0,0,1-3.333,1.392,10.558,10.558,0,0,1-5.549-.619,9.986,9.986,0,0,1-3.766-2.316,5.349,5.349,0,0,1-1.532-3.542C-302.135,461.9-302.155,461.3-302.165,460.7Z" transform="translate(-184.457 -657.122)"/></g></g></svg>