<?xml version="1.0" encoding="utf-8"?>
<!-- Generator: Adobe Illustrator 22.0.1, SVG Export Plug-In . SVG Version: 6.00 Build 0)  -->
<svg version="1.1" id="圖層_1" xmlns="http://www.w3.org/2000/svg" xmlns:xlink="http://www.w3.org/1999/xlink" x="0px" y="0px"
	 viewBox="0 0 226.8 113.4" style="enable-background:new 0 0 226.8 113.4;" xml:space="preserve">
<style type="text/css">
	.st0{fill:#2CB5A9;}
	.st1{fill:#FFFDFD;}
</style>
<g>
	<path class="st0" d="M95.6,21.9c0-8.4-6.8-15.2-15.2-15.2H23.9c-8.4,0-15.2,6.8-15.2,15.2v56.5h21.5c-2-1.6-23.2-19.7-4.9-62.9
		c0,0,18.6,13.4,26,62.9h2.2c1.9-48.3,21.3-62.9,21.3-62.9c14,42.4,0.5,61.3-0.8,62.9h21.6V21.9z"/>
</g>
<g>
	<path class="st1" d="M144.1,74.7c3.6-3,5.4-7.3,5.4-12.6v-36h-9.3v35.3c0,3-0.9,5.4-2.8,7.1s-4.5,2.6-7.8,2.6c-3,0-5.4-0.9-7.1-2.6
		c-1.7-1.8-2.6-4-2.6-6.9V26.1h-9.3V62c0,5.5,1.6,9.8,4.9,12.8s8,4.5,14,4.5C135.6,79.3,140.4,77.8,144.1,74.7z"/>
	<polygon class="st1" points="197.8,26.1 187.2,26.1 169.4,51.1 169.4,26.1 160.2,26.1 160.2,78.4 169.4,78.4 169.4,64.1 
		175.3,56.1 189.8,78.4 200.9,78.4 181.4,49 	"/>
	<rect x="205.4" y="26.1" class="st1" width="9.3" height="52.3"/>
	<path class="st1" d="M14.6,91.2c0,0,0.2-0.3,0.6-0.9c0.1-0.1,0.1-0.1,0.1-0.2c-0.4-0.3-0.9-0.7-1.5-1.1c-0.5-0.3-1.1-0.6-1.9-1
		c-0.1,0-0.1,0-0.2,0.1c-0.4,0.5-0.6,0.8-0.6,0.9c0.4,0.1,0.9,0.4,1.4,0.7C13.2,90.3,13.9,90.7,14.6,91.2z"/>
	<path class="st1" d="M14.3,99.3c0-0.1-0.2-0.4-0.5-1.2c0-0.1-0.1-0.2-0.1-0.2s-0.1,0.1-0.1,0.2c-0.3,0.7-0.7,1.5-1.2,2.3
		c-0.5,1-1.1,1.9-1.6,2.7c-0.4,0.6-0.8,1-1.2,1.4c-0.1,0.1-0.1,0.2-0.1,0.3c0,0.1,0.1,0.2,0.1,0.2c0.8,0.9,1.2,1.3,1.3,1.3
		s0.2-0.1,0.2-0.2c0-0.3,0-0.5,0.1-0.7c0.5-0.7,0.8-1.4,1.2-2c0.6-1.1,1.2-2.4,1.8-3.9C14.3,99.5,14.3,99.4,14.3,99.3z"/>
	<path class="st1" d="M26.3,100.3c-0.9-0.9-1.6-1.9-2.2-3c-0.5-0.9-1.2-2.2-1.9-4h5c0.1,0,0.2-0.1,0.2-0.3v-0.6
		c0-0.2-0.1-0.3-0.2-0.3H22v-3c0-0.3,0.1-0.4,0.2-0.4s0.2-0.1,0.2-0.3c0-0.2-0.5-0.2-1.5-0.2c-0.2,0-0.3,0.1-0.3,0.2V92h-4.8
		c-0.2,0-0.2,0.1-0.2,0.3V93c0,0.2,0.1,0.3,0.2,0.3h4.7c-0.9,2-1.7,3.4-2.2,4.2c-0.8,1.3-1.6,2.3-2.4,3.1c-0.5,0.5-1.2,1.1-2,1.7
		c0,0,0,0.1,0.1,0.2c0.3,0.2,0.5,0.4,0.8,0.7c0.1,0.1,0.2,0.1,0.4,0.1c0.9-0.7,1.7-1.6,2.6-2.6c0.7-0.9,1.4-1.9,2.1-3
		c0.3-0.4,0.5-0.9,0.8-1.5v10c0,0.2,0.1,0.2,0.3,0.2h0.8c0.2,0,0.3-0.1,0.3-0.2V95.9c0.2,0.5,0.5,1,0.7,1.4c0.5,1.1,1.2,2.2,2,3.2
		c0.7,0.9,1.6,1.8,2.6,2.7c0.1,0,0.1-0.1,0.2-0.2c0.2-0.3,0.4-0.5,0.7-0.8c0.1-0.1,0.2-0.1,0.2-0.2C27.7,101.6,27,101,26.3,100.3z"
		/>
	<path class="st1" d="M13.4,95.8c0,0,0.2-0.3,0.6-0.9c0.1-0.1,0.1-0.1,0.1-0.2c-0.4-0.3-1-0.7-1.6-1.1c-0.5-0.3-1.2-0.7-2.1-1.1
		c-0.1,0-0.1,0-0.2,0.1c-0.4,0.5-0.6,0.8-0.6,0.9c0.4,0.1,1,0.4,1.6,0.8C11.9,94.8,12.7,95.3,13.4,95.8z"/>
	<path class="st1" d="M40.7,98.9h-7.4c-0.2,0-0.3,0.1-0.3,0.3v6c0,0.2,0.1,0.2,0.3,0.2h0.8c0.2,0,0.3-0.1,0.3-0.2v-1.4h5.1v0.8
		c0,0.2,0.1,0.2,0.3,0.2h0.8c0.2,0,0.3-0.1,0.3-0.2v-5.5C41,99,40.9,98.9,40.7,98.9z M39.6,102.6h-5.1v-2.4h5.1V102.6z"/>
	<path class="st1" d="M32.9,95.2c0.1,0.1,0.2,0.2,0.4,0.2c0.8-0.2,1.5-0.4,2-0.6c0.8-0.3,1.6-0.7,2.3-1.2c0.7-0.4,1.2-0.8,1.7-1.4
		c0.2-0.2,0.4-0.5,0.5-0.8c0.6,0.8,1.2,1.3,1.7,1.7c0.7,0.6,1.5,1.1,2.4,1.4c0.8,0.3,1.8,0.6,2.9,0.8c0.2,0,0.3-0.1,0.3-0.3
		c0.1-0.3,0.3-0.6,0.5-1c0.1-0.1,0.1-0.2,0.1-0.2c-1.2-0.1-2.2-0.2-3-0.5c-0.7-0.2-1.4-0.6-2.2-1.1c-0.4-0.3-0.9-0.7-1.4-1.2H47
		c0.2,0,0.2-0.1,0.2-0.3v-0.6c0-0.2-0.1-0.3-0.2-0.3h-6.3c0.1-0.3,0.2-0.7,0.3-1.1c0-0.2,0.1-0.3,0.3-0.3c0.1-0.1,0.2-0.2,0.2-0.2
		c0-0.1-0.1-0.1-0.2-0.1l-1.4-0.2c-0.1,0-0.2,0.1-0.2,0.2c0,0.6-0.1,1.2-0.3,1.7v0.1h-6.1c-0.2,0-0.2,0.1-0.2,0.3v0.6
		c0,0.2,0.1,0.3,0.2,0.3h5.4c0,0.1-0.1,0.1-0.1,0.2c-0.4,0.4-0.8,0.8-1.2,1.2c-0.7,0.5-1.5,0.8-2.4,1.1c-0.8,0.3-1.6,0.5-2.5,0.6
		c-0.1,0-0.1,0.1-0.1,0.2c0,0,0,0.1,0.1,0.2C32.6,94.7,32.8,95,32.9,95.2z"/>
	<path class="st1" d="M48.9,96H31.1c-0.2,0-0.2,0.1-0.2,0.3v0.6c0,0.2,0.1,0.3,0.2,0.3h13.6v7.3c0,0.5-0.4,0.7-1.1,0.7
		c-0.4,0-0.8-0.1-1.3-0.2v0.1c0.2,0.4,0.3,0.8,0.3,1.1c0,0.2,0,0.4,0.1,0.4h0.9c1.6,0,2.5-0.5,2.5-1.5v-7.9h2.8
		c0.2,0,0.2-0.1,0.2-0.3v-0.6C49.2,96.1,49.1,96,48.9,96z"/>
	<path class="st1" d="M69.3,105.3c-1.1-0.2-1.9-0.4-2.4-0.6c-0.6-0.2-1.1-0.4-1.7-0.7h1.6c0.2,0,0.3-0.1,0.3-0.2v-8.3
		c0-0.2-0.1-0.2-0.3-0.2H55.9c-0.2,0-0.3,0.1-0.3,0.2v8.3c0,0.2,0.1,0.2,0.3,0.2h1.7c-0.7,0.4-1.5,0.6-2.2,0.9s-1.6,0.5-2.7,0.7
		c-0.2,0-0.2,0.1-0.2,0.1c0,0.1,0,0.1,0.1,0.2c0.2,0.2,0.4,0.3,0.4,0.5c0.1,0.1,0.2,0.2,0.3,0.2c2-0.4,3.9-1,5.7-1.7
		c0-0.1,0.2-0.1,0.4-0.1c0.1,0,0.2,0,0.2-0.1s-0.2-0.3-0.6-0.7h5.4c-0.5,0.4-0.7,0.7-0.7,0.8c0,0,0,0,0.1,0.1c1,0.5,2.5,1,4.6,1.6
		c0.1,0,0.2,0,0.3,0c0.6-0.6,0.9-1,0.9-1.1C69.6,105.4,69.5,105.3,69.3,105.3z M57,96.4h8.7v1.4H57V96.4z M57,99h8.7v1.3H57V99z
		 M57,102.8v-1.3h8.7v1.3H57z"/>
	<path class="st1" d="M53.4,96.3c0.1,0,0.2-0.1,0.2-0.2s0.1-0.2,0.2-0.3c0.6-0.3,1.1-0.6,1.5-0.9c0.7-0.4,1.5-1,2.3-1.7
		c0.1,0,0.1-0.1,0.1-0.1s-0.1-0.4-0.4-1c0-0.1-0.1-0.1-0.1-0.1s-0.1,0-0.1,0.1c-0.4,0.3-0.9,0.7-1.4,1c-0.6,0.4-1.3,0.8-1.9,1.2
		c-0.5,0.2-0.9,0.4-1.4,0.6c-0.1,0-0.1,0.1-0.1,0.1c0,0.1,0.1,0.2,0.1,0.2C53,95.9,53.4,96.3,53.4,96.3z"/>
	<path class="st1" d="M70.3,94.4c-0.4-0.1-0.7-0.1-1.1-0.2c-0.5-0.1-1.1-0.3-1.7-0.6c-0.3-0.2-0.7-0.4-1-0.6c-0.4-0.3-0.7-0.6-1-0.9
		s-0.5-0.6-0.7-1c-0.1-0.2-0.1-0.4-0.2-0.5h2.8L66.3,92c0,0.1,0.4,0.3,1.1,0.5c0.1,0,0.1,0,0.2-0.1l2-2.6c0-0.1-0.1-0.3-0.4-0.5
		c-0.1-0.1-0.2-0.1-0.4-0.1h-7c0.1-0.1,0.1-0.3,0.2-0.4c0.1-0.1,0.2-0.2,0.4-0.2c0.1,0,0.1-0.1,0.1-0.2s-0.5-0.3-1.4-0.8
		c0,0-0.1,0-0.1,0.1c-0.1,0.4-0.4,0.9-0.6,1.3c-0.3,0.5-0.7,1-1.1,1.4c-0.3,0.3-0.7,0.6-1,0.9c0,0.1,0,0.1,0.1,0.2
		c0.2,0.1,0.3,0.3,0.5,0.4c0.1,0.1,0.2,0.2,0.3,0.2c0.6-0.5,1.1-0.9,1.3-1.2c0.1-0.1,0.3-0.3,0.4-0.4h2.2c0,0.1-0.1,0.2-0.1,0.3
		c-0.1,0.3-0.3,0.5-0.5,0.8s-0.5,0.6-0.8,0.9S61,93,60.6,93.2c-0.3,0.1-0.6,0.3-0.9,0.4c-0.3,0.1-0.7,0.2-1.1,0.3L58.5,94
		c0,0,0,0.1,0.1,0.2c0.2,0.2,0.4,0.5,0.6,0.8c0.1,0.1,0.2,0.1,0.3,0.1c0.4-0.1,0.8-0.2,1.1-0.4c0.4-0.1,0.7-0.4,1.1-0.6
		c0.4-0.2,0.7-0.5,1.1-0.9c0.3-0.3,0.6-0.7,0.8-1c0.1-0.1,0.2-0.3,0.2-0.4c0,0,0,0.1,0.1,0.1c0.2,0.4,0.5,0.8,0.8,1.2
		c0.3,0.3,0.7,0.6,1.1,1c0.4,0.3,0.9,0.6,1.5,0.9s1.2,0.5,1.9,0.6c0.1,0,0.2-0.1,0.3-0.2c0.2-0.3,0.4-0.5,0.7-0.8
		C70.3,94.6,70.3,94.5,70.3,94.4C70.4,94.5,70.4,94.4,70.3,94.4z"/>
	<path class="st1" d="M52.8,90.1h4.1c0.1,0,0.2-0.1,0.2-0.3V89c0-0.1-0.1-0.2-0.2-0.2h-4.1c-0.2,0-0.2,0.1-0.2,0.2v0.8
		C52.6,90,52.6,90.1,52.8,90.1z"/>
	<path class="st1" d="M79.5,99.8h-5.8c-0.2,0-0.3,0.1-0.3,0.3v6.2c0,0.2,0.1,0.2,0.3,0.2h0.8c0.2,0,0.3-0.1,0.3-0.2v-1h3.5v1
		c0,0.2,0.1,0.2,0.3,0.2h0.8c0.2,0,0.3-0.1,0.3-0.2V100C79.8,99.9,79.7,99.8,79.5,99.8z M78.4,104h-3.5v-3h3.5V104z"/>
	<path class="st1" d="M91.3,102c0-0.1-0.1-0.1-0.2-0.1s-0.2,0.1-0.2,0.2c-0.2,1.2-0.4,1.9-0.5,2.2c-0.1,0.2-0.2,0.4-0.4,0.4
		c-0.2,0-0.4-0.6-0.6-1.9c-0.2-1.5-0.3-3.6-0.3-6.4c0-1.1,0.1-2.1,0.2-3.2c0.1-1.2,0.4-2.5,0.7-3.8c0-0.1-0.1-0.3-0.3-0.7
		c-0.1-0.1-0.2-0.1-0.3-0.2h-8.2c-0.2,0-0.2,0.1-0.2,0.3v0.6c0,0.2,0.1,0.3,0.2,0.3H83v6.2h-2.1c-0.1,0-0.2,0.1-0.2,0.3v0.6
		c0,0.2,0.1,0.3,0.2,0.3H83v9.1c0,0.2,0.1,0.2,0.2,0.2H84c0.2,0,0.3-0.1,0.3-0.2v-9.1h2.2c0.2,0,0.2-0.1,0.2-0.3v-0.6
		c0-0.2-0.1-0.3-0.2-0.3h-2.2v-6.2h4.2c-0.6,2.7-0.8,4.9-0.8,6.6c0,1.8,0.1,3.5,0.3,5.2c0.2,1.5,0.5,2.7,0.9,3.7
		c0.4,0.9,0.7,1.3,1.1,1.3c0.3,0,0.6-0.2,0.8-0.5c0.5-0.7,0.9-1.8,1.3-3.2c0-0.2,0-0.3-0.1-0.3C91.8,102.4,91.5,102.3,91.3,102z"/>
	<path class="st1" d="M74.3,89.8h5c0.2,0,0.2-0.1,0.2-0.3v-0.6c0-0.2-0.1-0.3-0.2-0.3h-5c-0.1,0-0.2,0.1-0.2,0.3v0.6
		C74.1,89.7,74.1,89.8,74.3,89.8z"/>
	<path class="st1" d="M73.9,97.6c0,0.2,0.1,0.3,0.2,0.3h5.2c0.2,0,0.2-0.1,0.2-0.3V97c0-0.2-0.1-0.3-0.2-0.3h-5.2
		c-0.2,0-0.2,0.1-0.2,0.3V97.6z"/>
	<path class="st1" d="M79.8,91h-6.4c-0.1,0-0.2,0.1-0.2,0.3V92c0,0.2,0.1,0.3,0.2,0.3h6.4c0.2,0,0.2-0.1,0.2-0.3v-0.6
		C80.1,91.1,80,91,79.8,91z"/>
	<path class="st1" d="M74.1,95.1h5.2c0.2,0,0.2-0.1,0.2-0.3v-0.6c0-0.2-0.1-0.3-0.2-0.3h-5.2c-0.2,0-0.2,0.1-0.2,0.3v0.6
		C73.9,95,74,95.1,74.1,95.1z"/>
	<path class="st1" d="M101.5,88.6h-5.2c-0.2,0-0.3,0.1-0.3,0.3v5.3c0,1.9-0.1,3.5-0.2,4.9c-0.1,1.3-0.3,2.5-0.6,3.7
		c-0.3,1.1-0.6,2-0.9,2.6c0,0.1,0,0.2,0.1,0.3c0.3,0.1,0.5,0.3,0.7,0.5c0.1,0,0.1,0,0.2,0c0.4-0.7,0.7-1.4,0.9-2.2
		c0.4-1.3,0.7-2.5,0.8-3.8c0-0.1,0-0.3,0.1-0.5h3.4v3.8c0,0.4-0.1,0.6-0.3,0.8c-0.1,0.2-0.6,0.2-1.4,0.2c-0.1,0-0.1,0-0.1,0.1
		c0.3,0.6,0.4,1,0.4,1.3c0,0.2,0.1,0.2,0.3,0.2c0.7-0.1,1.3-0.3,1.8-0.5c0.5-0.4,0.7-0.9,0.7-1.5V88.9
		C101.9,88.7,101.8,88.6,101.5,88.6z M100.5,98.6h-3.2c0.1-1.1,0.1-2.3,0.1-3.8h3.1V98.6z M100.5,93.5h-3.1v-3.6h3.1V93.5z"/>
	<path class="st1" d="M103.4,96c0.1,0.1,0.2,0.1,0.4,0.1c0.5-0.3,0.8-0.7,1.1-1c0.4-0.5,0.7-1.1,0.9-1.7c0.2-0.7,0.2-1.6,0.2-2.4v-1
		h2.5v4.7c0,0.3,0.1,0.5,0.2,0.6c0.3,0.2,0.7,0.3,1.2,0.3h1.6c0.5,0,0.9-0.2,1.1-0.5c0.2-0.6,0.4-1.3,0.6-2.2c0-0.2-0.1-0.3-0.3-0.3
		c-0.3-0.1-0.5-0.2-0.6-0.2c-0.1-0.1-0.2-0.1-0.3-0.1c-0.1,0-0.2,0-0.2,0.1c-0.1,0.8-0.2,1.3-0.3,1.5c-0.1,0.2-0.3,0.3-0.5,0.3h-0.3
		c-0.2,0-0.4,0-0.5-0.1s-0.2-0.2-0.2-0.3v-4.6c0-0.2-0.1-0.3-0.3-0.3h-4.8c-0.2,0-0.3,0.1-0.3,0.3V91c0,0.7-0.1,1.4-0.2,2
		c-0.2,0.8-0.8,1.5-1.6,2.1c0,0.1,0,0.2,0.1,0.3C103.1,95.5,103.2,95.8,103.4,96z"/>
	<path class="st1" d="M113.2,105.1c-1.1-0.3-2-0.6-2.7-1c-0.6-0.3-1.1-0.6-1.6-0.9c0.2-0.2,0.4-0.4,0.6-0.7c0.4-0.5,0.8-1.2,1.2-2
		c0.3-0.6,0.6-1.5,1-2.7c0-0.1-0.1-0.3-0.4-0.7c-0.1-0.1-0.2-0.1-0.3-0.1h-7.4c-0.2,0-0.2,0.1-0.2,0.3V98c0,0.2,0.1,0.3,0.2,0.3h0.8
		c0.3,1,0.6,1.9,0.9,2.5c0.3,0.7,0.7,1.3,1.2,1.9c0.1,0.2,0.3,0.3,0.4,0.5l0,0c-0.6,0.5-1.4,1-2.4,1.4c-0.5,0.2-1.1,0.4-1.6,0.5
		c-0.1,0-0.1,0.1-0.1,0.1c0,0.1,0,0.1,0.1,0.2c0.2,0.2,0.3,0.5,0.5,0.7c0.1,0.1,0.2,0.2,0.4,0.2c0.9-0.2,1.6-0.5,2.1-0.8
		c0.8-0.4,1.5-0.8,2.1-1.3c0.1,0.1,0.1,0.1,0.2,0.2c0.6,0.4,1.3,0.8,2.1,1.2c0.6,0.3,1.2,0.5,1.8,0.7c0.2,0.1,0.3,0.1,0.3,0.1
		c0.1,0,0.1-0.1,0.2-0.2c0.2-0.3,0.5-0.5,0.7-0.7c0.1-0.1,0.1-0.1,0.1-0.2C113.3,105.2,113.3,105.2,113.2,105.1z M107.8,102.3
		c-0.2-0.2-0.4-0.5-0.6-0.8c-0.5-0.6-0.8-1.2-1.1-2c-0.2-0.4-0.3-0.8-0.4-1.3h4.4c-0.2,0.6-0.3,1-0.5,1.4c-0.3,0.7-0.6,1.4-1,1.9
		C108.3,101.8,108.1,102.1,107.8,102.3z"/>
	<path class="st1" d="M122,89.7c0.1,0,0.2-0.1,0.2-0.2s-0.6-0.5-1.7-1c-0.1,0-0.1,0.1-0.2,0.2c-0.2,1-0.6,2-1.1,3
		c-0.5,1.2-1.1,2.2-1.8,3.2c-0.5,0.7-1.1,1.4-1.6,2c0,0.1,0.1,0.2,0.2,0.2c0.2,0.2,0.4,0.4,0.6,0.5c0.1,0.1,0.3,0.2,0.4,0.2
		c0.6-0.7,1.1-1.4,1.5-1.9v10.3c0,0.2,0.1,0.2,0.3,0.2h0.8c0.2,0,0.3-0.1,0.3-0.2V93.6c0.5-1,1.1-2.2,1.6-3.7
		C121.6,89.8,121.8,89.7,122,89.7z"/>
	<path class="st1" d="M131.4,88.9c0-0.1,0-0.2-0.1-0.2H126c-0.1,0-0.2,0.1-0.2,0.3v0.6c0,0.2,0.1,0.3,0.2,0.3h4.1
		c0.1,1.3,0.4,2.4,0.9,3.3c0.6,1.2,1.5,2.5,2.7,3.6c0.1,0,0.5-0.2,1-0.6c0.1-0.1,0.2-0.2,0.2-0.3c-0.9-0.9-1.7-1.8-2.3-3
		C131.7,91.7,131.4,90.4,131.4,88.9z"/>
	<path class="st1" d="M132.6,96.5h-9c-0.1,0-0.2,0.1-0.2,0.3v0.6c0,0.2,0.1,0.3,0.2,0.3h2.4c-0.1,1.4-0.2,2.4-0.4,3.2
		c-0.2,0.9-0.6,1.7-1.1,2.4c-0.4,0.5-1,1-1.6,1.4s-1.1,0.6-1.6,0.8c0.3,0.3,0.6,0.7,1,1c0.9-0.3,1.6-0.7,2.1-1.1
		c0.6-0.4,1.1-0.9,1.6-1.5c0.5-0.7,0.9-1.6,1.1-2.7c0.2-0.7,0.3-1.9,0.4-3.5h4.1c-0.1,2-0.1,3.4-0.3,4.2c-0.1,1.1-0.3,1.9-0.5,2.3
		c-0.2,0.5-0.5,0.7-1.1,0.7c-0.7,0-1.6,0-2.4-0.1v0.1c0.4,0.4,0.6,0.8,0.7,1.1c0,0.3,0.6,0.4,1.8,0.4s1.9-0.4,2.2-1.1
		s0.5-1.7,0.7-3.1c0.1-1.1,0.2-3,0.3-5.6C132.9,96.6,132.8,96.5,132.6,96.5z"/>
	<path class="st1" d="M122.4,97c0.4-0.4,0.8-0.8,1.2-1.2c0.4-0.5,0.7-1,1.1-1.6c0.3-0.5,0.6-1.3,1-2.3c0-0.1,0.1-0.2,0.3-0.2
		c0.1,0,0.2-0.1,0.2-0.2s-0.1-0.2-0.2-0.3l-1.4-0.5c-0.1,0-0.1,0-0.2,0.1c-0.2,0.9-0.5,1.6-0.7,2.1s-0.5,1-0.8,1.5
		c-0.5,0.8-1.1,1.5-1.8,2c-0.1,0-0.1,0.1-0.1,0.1s0,0.1,0.1,0.1c0.3,0.1,0.5,0.2,0.8,0.3C122,97,122.2,97,122.4,97z"/>
	<path class="st1" d="M155.1,90.6h-9.7c0.1-0.3,0.3-0.6,0.4-0.9c0.1-0.3,0.3-0.4,0.6-0.4c0.1-0.1,0.2-0.2,0.2-0.3
		c0-0.1-0.1-0.2-0.2-0.3l-1.6-0.6c-0.1,0-0.2,0.1-0.3,0.2c-0.2,0.8-0.5,1.5-0.8,2.2h-6.1c-0.2,0-0.2,0.1-0.2,0.3v0.6
		c0,0.2,0.1,0.3,0.2,0.3h5.5c0,0.1-0.1,0.1-0.1,0.2c-0.5,0.9-1,1.8-1.7,2.6c-1.1,1.4-2.3,2.6-3.6,3.5c-0.1,0.1-0.2,0.1-0.2,0.2
		s0,0.1,0.1,0.1c0.3,0.1,0.6,0.2,0.9,0.3c0.1,0.1,0.3,0.1,0.5,0.1c0.9-0.7,1.7-1.4,2.5-2.2c0.1-0.2,0.3-0.3,0.4-0.5v10
		c0,0.2,0.1,0.2,0.3,0.2h0.8c0.2,0,0.3-0.1,0.3-0.2v-3.3h8.5v1.4c0,0.2-0.1,0.4-0.4,0.5c-0.2,0.1-1,0.1-2.2,0.1
		c-0.1,0-0.2,0-0.2,0.1c0.3,0.6,0.4,1,0.5,1.3c0,0.2,0.1,0.2,0.2,0.2c1-0.1,1.9-0.2,2.5-0.4c0.7-0.2,1-0.6,1-1V94.5
		c0-0.2-0.1-0.3-0.4-0.3h-9.4c0.1-0.1,0.1-0.2,0.2-0.3c0.3-0.5,0.7-1.2,1.1-2H155c0.2,0,0.2-0.1,0.2-0.3V91
		C155.3,90.7,155.2,90.6,155.1,90.6z M151.8,101.7h-8.5v-2.5h8.5V101.7z M151.8,95.5v2.4h-8.5v-2.4H151.8z"/>
	<path class="st1" d="M175.8,98.1c-0.1,0-0.1,0-0.2,0.1c-0.6,0.8-1.2,1.4-1.8,1.9c-0.4,0.3-0.8,0.6-1.3,0.9c0,0,0,0,0-0.1
		c-0.3-0.7-0.6-1.5-0.8-2.3c-0.1-0.5-0.2-1-0.3-1.6h3.7c0.2,0,0.3-0.1,0.3-0.3v-7.8c0-0.1-0.1-0.2-0.3-0.2H167
		c-0.2,0-0.3,0.1-0.3,0.3v15.2c-0.7,0.2-1.3,0.4-1.9,0.5c0.4,1.2,0.7,1.7,0.8,1.7s0.3-0.2,0.5-0.6c1.6-0.5,3.1-1,4.6-1.7
		c0.1-0.1,0.1-0.5,0.1-1.2c0-0.2-0.1-0.2-0.2-0.2h-0.1c-0.8,0.3-1.6,0.6-2.4,0.9V97h2c0.2,1.2,0.4,2.2,0.7,2.9
		c0.2,0.8,0.5,1.5,0.9,2.2c0.3,0.6,0.7,1.2,1.2,1.8c0.5,0.5,1,1,1.5,1.4c0.5,0.3,0.9,0.6,1.3,0.8c0.1,0.1,0.2,0.2,0.3,0.2
		s0.1-0.1,0.2-0.2c0.3-0.3,0.5-0.5,0.8-0.8c0.1-0.1,0.1-0.1,0.1-0.2s0-0.1-0.1-0.1c-0.8-0.3-1.5-0.7-2-1.1c-0.6-0.4-1-0.9-1.4-1.4
		c-0.1-0.1-0.1-0.2-0.2-0.3c1.1-0.7,2.1-1.6,3.1-2.7c0-0.1,0.2-0.1,0.5-0.1c0.2,0,0.2,0,0.2-0.1C177,99.2,176.6,98.8,175.8,98.1z
		 M168,90h5.9v2.2H168V90z M168,95.7v-2.3h5.9v2.3H168z"/>
	<path class="st1" d="M165.3,100.3c0-0.9-0.2-1.8-0.6-2.7c-0.4-0.9-1-1.6-1.6-2.2c-0.1-0.1-0.1-0.2-0.1-0.3s0-0.2,0.1-0.3l2.7-5.5
		c0-0.1-0.2-0.3-0.5-0.5c-0.1-0.1-0.3-0.1-0.5-0.1h-5.4c-0.2,0-0.3,0.1-0.3,0.2v17.3c0,0.2,0.1,0.2,0.3,0.2h0.8
		c0.2,0,0.3-0.1,0.3-0.2V89.9h3.7l-2.7,5.1c-0.1,0.1-0.1,0.2-0.1,0.3c0,0.1,0.1,0.1,0.2,0.2c0.9,0.8,1.5,1.7,1.9,2.6
		c0.3,0.8,0.5,1.5,0.5,2.1s-0.1,1.1-0.4,1.4c-0.2,0.4-0.6,0.6-1.2,0.6l-1-0.2c-0.2,0-0.2,0.1-0.2,0.2c0.2,0.2,0.3,0.6,0.3,1.1
		c0,0.2,0.2,0.3,0.5,0.3c0.8,0,1.4-0.1,1.7-0.4c0.5-0.2,0.9-0.6,1.2-1.2C165.1,101.7,165.3,101,165.3,100.3z"/>
	<path class="st1" d="M197.8,96.5c-1.4-0.6-2.4-1.6-3-3c-0.5-0.9-1-2.5-1.5-4.7c-0.1-0.2-0.1-0.3-0.2-0.3h-4.2
		c-0.2,0-0.2,0.1-0.2,0.3v0.6c0,0.2,0.1,0.3,0.2,0.3h3.2c0.6,2.2,1.1,3.8,1.6,4.7c0.7,1.3,1.7,2.4,3.2,3.4c0.1,0,0.3-0.1,0.4-0.2
		c0.2-0.2,0.4-0.4,0.7-0.7c0.1-0.1,0.1-0.2,0.1-0.2C198,96.7,197.9,96.6,197.8,96.5z"/>
	<path class="st1" d="M183.1,96.1c0.6-0.7,1.1-1.5,1.6-2.3c0.4-0.7,0.9-1.8,1.5-3.2c0.1-0.2,0.2-0.3,0.5-0.3
		c0.2-0.1,0.2-0.2,0.2-0.3c0-0.1-0.1-0.2-0.2-0.3l-1.4-0.5c-0.1,0-0.2,0.1-0.2,0.2c-0.3,1.2-0.7,2.1-1.1,2.9c-0.3,0.7-0.7,1.4-1.2,2
		c-0.8,1.1-1.7,2-2.7,2.8c-0.1,0-0.1,0.1-0.1,0.2c0,0,0,0.1,0.1,0.1c0.3,0.1,0.6,0.2,0.8,0.3c0.1,0.1,0.3,0.1,0.5,0.1
		C181.9,97.3,182.5,96.7,183.1,96.1z"/>
	<path class="st1" d="M193.1,98.9c-0.7,0.3-1,0.5-1,0.7c0.6,0.8,1.2,1.8,1.8,2.9c-3.5,0.4-6.4,0.8-8.9,1c1.8-3.5,3.3-6.1,4.3-8
		c0.1-0.2,0.3-0.3,0.6-0.4c0.2,0,0.2-0.1,0.2-0.2s-0.5-0.4-1.6-1c-0.1,0-0.2-0.1-0.3-0.1s-0.3,0.1-0.3,0.2c-0.4,1.2-0.9,2.5-1.4,3.7
		c-0.4,0.9-1.4,2.8-3,5.7c-0.8,0.1-1.5,0.1-2.2,0.1c0.3,1.5,0.5,2.2,0.7,2.2c0.1,0,0.3-0.1,0.3-0.3c0.1-0.2,0.2-0.3,0.4-0.3
		c1.8-0.2,5.7-0.8,11.8-1.7c0.4,0.7,0.8,1.5,1.2,2.3c0.3,0,0.7-0.2,1.2-0.5c0.1,0,0.1-0.1,0.1-0.3c-1.2-2.2-2.5-4.2-3.9-6.1
		C193.2,98.9,193.2,98.9,193.1,98.9z"/>
	<path class="st1" d="M217.7,88.8h-15.6c-0.2,0-0.2,0.1-0.2,0.3v0.6c0,0.2,0.1,0.3,0.2,0.3h14.6v13.7c0,0.4-0.2,0.6-0.5,0.7
		c-0.3,0.2-1.1,0.2-2.6,0.2c-0.2,0-0.2,0-0.2,0.1c0.3,0.6,0.4,1,0.4,1.3c0,0.2,0.1,0.2,0.3,0.2c1.2-0.1,2.1-0.3,2.9-0.5
		c0.8-0.4,1.2-0.8,1.2-1.5V89.1C218.1,88.9,217.9,88.8,217.7,88.8z"/>
	<path class="st1" d="M213.5,93.6V93c0-0.2-0.1-0.3-0.2-0.3h-10.4c-0.2,0-0.2,0.1-0.2,0.3v0.6c0,0.2,0.1,0.3,0.2,0.3h10.4
		C213.5,93.9,213.5,93.8,213.5,93.6z"/>
	<path class="st1" d="M212.4,96.2h-8.2c-0.2,0-0.3,0.1-0.3,0.3v7.8c0,0.2,0.1,0.2,0.3,0.2h0.8c0.2,0,0.3-0.1,0.3-0.2v-2.2h6v0.8
		c0,0.2,0.1,0.2,0.3,0.2h0.8c0.2,0,0.3-0.1,0.3-0.2v-6.5C212.7,96.3,212.6,96.2,212.4,96.2z M211.3,100.9h-6v-3.4h6V100.9z"/>
</g>
</svg>
