<?xml version="1.0" encoding="utf-8"?>
<!-- Generator: Adobe Illustrator 22.1.0, SVG Export Plug-In . SVG Version: 6.00 Build 0)  -->
<svg version="1.1" id="圖層_1" xmlns="http://www.w3.org/2000/svg" xmlns:xlink="http://www.w3.org/1999/xlink" x="0px" y="0px"
	 width="220px" height="220px" viewBox="0 0 220 220" style="enable-background:new 0 0 220 220;" xml:space="preserve">
<style type="text/css">
	.st0{fill:#FFFFFF;}
</style>
<g>
	<g>
		<path class="st0" d="M91.3,73.5c0-8.8-7.2-16-16-16H16c-8.8,0-16,7.2-16,16v59.3h22.6c-2.1-1.7-24.4-20.7-5.2-66.1
			c0,0,19.6,14.1,27.3,66.1H47c2-50.7,22.3-66.1,22.3-66.1c14.7,44.5,0.5,64.4-0.8,66.1h22.7V73.5H91.3z"/>
	</g>
	<g>
		<path class="st0" d="M107.1,77.9h9.7v37.2c0,2.9,0.9,5.3,2.7,7.2c1.8,1.9,4.3,2.8,7.4,2.8c3.5,0,6.3-0.9,8.2-2.7
			c2-1.8,2.9-4.3,2.9-7.4V78h9.7v37.8c0,5.6-1.9,10.1-5.7,13.3c-3.8,3.2-8.8,4.8-15.2,4.8c-6.4,0-11.3-1.6-14.8-4.7
			c-3.5-3.1-5.2-7.6-5.2-13.4V77.9H107.1z"/>
		<path class="st0" d="M190.3,132.8L175,109.4l-6.1,8.4v15h-9.7V77.9h9.7v26.3l18.7-26.3h11.1l-17.2,24l20.5,30.9L190.3,132.8
			L190.3,132.8z"/>
		<path class="st0" d="M206.7,132.8V77.9h9.7v54.9H206.7z"/>
	</g>
	<g>
		<path class="st0" d="M5.2,153.4c0.1,0,0.1,0.1,0.1,0.2c0.4,0.8,0.5,1.2,0.5,1.2c0,0.1,0,0.2-0.1,0.3c-0.7,1.6-1.3,2.9-1.9,4.1
			c-0.3,0.6-0.7,1.3-1.2,2.1c-0.1,0.2-0.1,0.4-0.1,0.7c0,0.2-0.1,0.3-0.2,0.3c-0.1,0-0.6-0.4-1.4-1.3c-0.1,0-0.1-0.1-0.1-0.2
			c0-0.1,0-0.2,0.1-0.3c0.4-0.4,0.8-0.9,1.3-1.5c0.6-0.8,1.1-1.8,1.7-2.8c0.5-0.9,0.9-1.7,1.2-2.5C5.1,153.4,5.2,153.4,5.2,153.4z
			 M1.7,147.7c0.9,0.4,1.6,0.8,2.2,1.1c0.7,0.4,1.2,0.8,1.7,1.2c0,0,0,0.1-0.1,0.2c-0.4,0.6-0.6,0.9-0.6,0.9
			c-0.7-0.6-1.5-1.1-2.3-1.5c-0.7-0.4-1.2-0.7-1.7-0.8c0-0.1,0.2-0.4,0.7-0.9C1.6,147.8,1.7,147.7,1.7,147.7z M3.3,143.1
			c0.8,0.4,1.5,0.7,2,1.1c0.6,0.4,1.1,0.8,1.6,1.1c0,0,0,0.1-0.1,0.2c-0.4,0.6-0.6,0.9-0.6,0.9c-0.7-0.5-1.4-1-2.1-1.4
			c-0.6-0.4-1.1-0.6-1.5-0.7c0-0.1,0.2-0.4,0.6-0.9C3.2,143.1,3.3,143.1,3.3,143.1z M7.4,147.1h5.1v-3.9c0-0.2,0.1-0.3,0.3-0.3
			c1,0,1.6,0.1,1.6,0.3s-0.1,0.3-0.2,0.3c-0.1,0-0.2,0.2-0.2,0.4v3.2h5.5c0.2,0,0.2,0.1,0.2,0.3v0.7c0,0.2-0.1,0.3-0.2,0.3h-5.3
			c0.8,1.8,1.4,3.2,2,4.2c0.6,1.2,1.4,2.2,2.3,3.2c0.7,0.8,1.5,1.4,2.2,1.8c0,0.1-0.1,0.2-0.2,0.2c-0.3,0.3-0.5,0.6-0.7,0.9
			c-0.1,0.1-0.2,0.2-0.2,0.2c-1.1-0.9-2.1-1.8-2.8-2.8c-0.8-1-1.5-2.2-2.1-3.4c-0.2-0.4-0.5-0.9-0.7-1.5V162c0,0.2-0.1,0.3-0.3,0.3
			h-0.8c-0.2,0-0.3-0.1-0.3-0.3v-10.5c-0.3,0.6-0.6,1.2-0.9,1.6c-0.7,1.1-1.4,2.2-2.2,3.2c-0.9,1.1-1.8,2-2.7,2.7
			c-0.2,0-0.3,0-0.4-0.1c-0.3-0.3-0.5-0.5-0.8-0.7c0-0.1-0.1-0.2-0.1-0.2c0.9-0.6,1.5-1.2,2.1-1.8c0.8-0.8,1.6-1.9,2.5-3.2
			c0.6-0.9,1.3-2.4,2.3-4.4h-5c-0.2,0-0.3-0.1-0.3-0.3v-0.7C7.1,147.2,7.2,147.1,7.4,147.1z"/>
		<path class="st0" d="M23.6,151.3h18.7c0.2,0,0.3,0.1,0.3,0.3v0.7c0,0.2-0.1,0.3-0.3,0.3h-2.9v8.3c0,1-0.9,1.6-2.6,1.6h-0.9
			c-0.1,0-0.1-0.1-0.1-0.4c0-0.3-0.1-0.7-0.3-1.1v-0.1c0.5,0.1,0.9,0.2,1.3,0.2c0.8,0,1.2-0.2,1.2-0.7v-7.7H23.6
			c-0.2,0-0.3-0.1-0.3-0.3v-0.7C23.3,151.4,23.4,151.3,23.6,151.3z M25.7,144.8h6.4v-0.1c0.2-0.5,0.3-1.1,0.3-1.8
			c0-0.2,0.1-0.3,0.3-0.3l1.5,0.3c0.1,0,0.2,0.1,0.2,0.1c0,0.1-0.1,0.1-0.2,0.2c-0.2,0.1-0.3,0.2-0.3,0.4c-0.1,0.4-0.2,0.8-0.3,1.1
			h6.6c0.2,0,0.3,0.1,0.3,0.3v0.7c0,0.2-0.1,0.3-0.3,0.3h-6c0.5,0.6,1,1,1.4,1.3c0.8,0.6,1.6,1,2.3,1.2c0.9,0.3,1.9,0.5,3.2,0.6
			c0,0.1-0.1,0.2-0.1,0.3c-0.2,0.4-0.4,0.8-0.5,1c0,0.2-0.1,0.3-0.3,0.3c-1.2-0.2-2.2-0.5-3-0.9c-0.9-0.4-1.8-0.9-2.5-1.5
			c-0.6-0.4-1.2-1-1.8-1.8c-0.2,0.3-0.4,0.6-0.6,0.8c-0.5,0.6-1,1-1.7,1.4c-0.8,0.5-1.6,1-2.4,1.3c-0.5,0.2-1.2,0.4-2.1,0.6
			c-0.2,0-0.4-0.1-0.5-0.2c-0.2-0.3-0.3-0.5-0.6-0.8c-0.1-0.1-0.1-0.1-0.1-0.2c0-0.1,0-0.1,0.1-0.2c1-0.1,1.8-0.4,2.6-0.7
			c1-0.3,1.8-0.7,2.5-1.2c0.5-0.3,0.9-0.7,1.3-1.2c0-0.1,0.1-0.1,0.1-0.2h-5.7c-0.2,0-0.3-0.1-0.3-0.3v-0.7
			C25.5,144.9,25.6,144.8,25.7,144.8z M25.9,154.4h7.7c0.2,0,0.3,0.1,0.3,0.2v5.7c0,0.2-0.1,0.3-0.3,0.3h-0.8
			c-0.2,0-0.3-0.1-0.3-0.3v-0.8h-5.4v1.5c0,0.2-0.1,0.3-0.3,0.3h-0.9c-0.2,0-0.3-0.1-0.3-0.3v-6.3C25.6,154.5,25.7,154.4,25.9,154.4
			z M27.1,158.3h5.4v-2.6h-5.4V158.3z"/>
		<path class="st0" d="M50.9,147.1c0.1,0,0.1,0.1,0.1,0.1c0.3,0.7,0.5,1,0.5,1.1l-0.1,0.1c-0.9,0.7-1.7,1.3-2.5,1.7
			c-0.4,0.3-0.9,0.6-1.5,0.9c-0.1,0.1-0.2,0.2-0.2,0.3c0,0.2-0.1,0.3-0.2,0.3c-0.1,0-0.5-0.4-1.2-1.2c-0.1,0-0.1-0.1-0.1-0.2
			c0-0.1,0-0.1,0.1-0.1c0.5-0.2,1-0.4,1.5-0.6c0.7-0.4,1.3-0.8,2-1.2c0.6-0.4,1.1-0.8,1.5-1.1C50.8,147.1,50.9,147.1,50.9,147.1z
			 M49.6,150.5H61c0.2,0,0.3,0.1,0.3,0.3v8.7c0,0.2-0.1,0.3-0.3,0.3h-1.7c0.6,0.3,1.2,0.5,1.8,0.7s1.4,0.4,2.6,0.6
			c0.2,0.1,0.2,0.1,0.2,0.1c0,0.1-0.3,0.5-0.9,1.2c-0.1,0-0.2,0-0.3,0c-2.2-0.6-3.8-1.2-4.8-1.7c-0.1-0.1-0.1-0.1-0.1-0.1
			c0-0.1,0.2-0.4,0.7-0.8h-5.7c0.5,0.4,0.7,0.7,0.7,0.7c0,0.1-0.1,0.1-0.2,0.1c-0.3,0-0.4,0-0.4,0.1c-1.9,0.7-3.9,1.3-6,1.8
			c-0.2,0-0.3-0.1-0.3-0.2c-0.1-0.2-0.3-0.4-0.5-0.5c-0.1-0.1-0.1-0.2-0.1-0.3s0.1-0.1,0.3-0.1c1.1-0.2,2-0.5,2.8-0.8
			c0.8-0.2,1.6-0.5,2.3-0.9h-1.8c-0.2,0-0.3-0.1-0.3-0.3v-8.7C49.2,150.5,49.3,150.5,49.6,150.5z M46.3,143.7h4.3
			c0.2,0,0.2,0.1,0.2,0.2v0.8c0,0.2-0.1,0.3-0.2,0.3h-4.3c-0.2,0-0.3-0.1-0.3-0.3V144C46.1,143.8,46.2,143.7,46.3,143.7z
			 M50.7,153.2h9.1v-1.5h-9.1C50.7,151.7,50.7,153.2,50.7,153.2z M50.7,155.8h9.1v-1.3h-9.1C50.7,154.5,50.7,155.8,50.7,155.8z
			 M59.9,158.4V157h-9.1v1.4H59.9z M55.1,142.6c1,0.5,1.5,0.7,1.5,0.8s0,0.2-0.1,0.2c-0.2,0-0.4,0.1-0.4,0.2
			c-0.1,0.2-0.2,0.3-0.2,0.4h7.4c0.2,0,0.3,0,0.4,0.1c0.3,0.2,0.4,0.4,0.4,0.5l-2.1,2.7c0,0.1-0.1,0.1-0.2,0.1
			c-0.8-0.2-1.1-0.4-1.1-0.6l1.2-1.6H59c0.1,0.2,0.1,0.4,0.2,0.6c0.2,0.3,0.4,0.7,0.7,1c0.3,0.4,0.7,0.7,1.1,1
			c0.3,0.2,0.6,0.4,1,0.6c0.6,0.3,1.2,0.5,1.7,0.7c0.3,0.1,0.7,0.1,1.1,0.2c0.1,0,0.1,0.1,0.1,0.1c0,0.1,0,0.2-0.1,0.3
			c-0.3,0.3-0.5,0.5-0.7,0.8c-0.1,0.1-0.2,0.2-0.4,0.2c-0.7-0.1-1.4-0.4-2-0.7s-1.2-0.7-1.6-1c-0.5-0.4-0.9-0.7-1.2-1
			c-0.4-0.4-0.6-0.8-0.9-1.2c0-0.1,0-0.1-0.1-0.1c-0.1,0.2-0.2,0.3-0.3,0.4c-0.2,0.3-0.5,0.7-0.8,1s-0.7,0.6-1.1,0.9
			c-0.4,0.3-0.8,0.5-1.2,0.6s-0.7,0.3-1.1,0.4c-0.1,0-0.2,0-0.3-0.1c-0.2-0.3-0.4-0.6-0.7-0.8c-0.1-0.1-0.1-0.2-0.1-0.2
			s0-0.1,0.1-0.1c0.4-0.1,0.8-0.2,1.2-0.3s0.7-0.3,1-0.4c0.4-0.2,0.8-0.5,1.1-0.8s0.6-0.6,0.8-0.9c0.2-0.3,0.4-0.5,0.5-0.8
			c0-0.1,0.1-0.2,0.1-0.3h-2.3c-0.1,0.2-0.3,0.3-0.4,0.5c-0.3,0.3-0.7,0.7-1.4,1.3c-0.1,0-0.2-0.1-0.3-0.2c-0.2-0.1-0.3-0.3-0.5-0.4
			c-0.1-0.1-0.1-0.1-0.1-0.2c0.4-0.3,0.7-0.6,1-0.9c0.5-0.4,0.9-0.9,1.2-1.4C54.6,143.6,54.8,143.2,55.1,142.6
			C55,142.7,55,142.6,55.1,142.6z"/>
		<path class="st0" d="M68,146.1h6.7c0.2,0,0.3,0.1,0.3,0.3v0.7c0,0.2-0.1,0.3-0.3,0.3H68c-0.2,0-0.2-0.1-0.2-0.3v-0.7
			C67.8,146.2,67.8,146.1,68,146.1z M68.3,155.3h6.1c0.2,0,0.3,0.1,0.3,0.2v6.5c0,0.2-0.1,0.3-0.3,0.3h-0.8c-0.2,0-0.3-0.1-0.3-0.3
			v-1h-3.7v1.1c0,0.2-0.1,0.3-0.3,0.3h-0.8c-0.2,0-0.3-0.1-0.3-0.3v-6.5C68,155.4,68.1,155.3,68.3,155.3z M68.8,149.1h5.5
			c0.2,0,0.3,0.1,0.3,0.3v0.7c0,0.2-0.1,0.3-0.3,0.3h-5.5c-0.2,0-0.3-0.1-0.3-0.3v-0.7C68.5,149.2,68.6,149.1,68.8,149.1z M68.8,152
			h5.5c0.2,0,0.3,0.1,0.3,0.3v0.7c0,0.2-0.1,0.3-0.3,0.3h-5.5c-0.2,0-0.3-0.1-0.3-0.3v-0.7C68.5,152.1,68.6,152,68.8,152z
			 M68.9,143.5h5.2c0.2,0,0.3,0.1,0.3,0.3v0.7c0,0.2-0.1,0.3-0.3,0.3h-5.2c-0.2,0-0.2-0.1-0.2-0.3v-0.7
			C68.7,143.6,68.8,143.5,68.9,143.5z M69.5,159.7h3.7v-3.1h-3.7V159.7z M78.1,144.7h-1.9c-0.2,0-0.3-0.1-0.3-0.3v-0.7
			c0-0.2,0.1-0.3,0.3-0.3h8.6c0.1,0,0.2,0.1,0.3,0.2c0.2,0.4,0.3,0.6,0.3,0.7c-0.4,1.4-0.7,2.8-0.8,4c-0.1,1.1-0.2,2.3-0.2,3.4
			c0,2.9,0.1,5.1,0.4,6.7c0.2,1.3,0.5,2,0.6,2c0.2,0,0.4-0.1,0.4-0.4c0.2-0.3,0.3-1,0.5-2.3c0.1-0.1,0.2-0.2,0.3-0.2
			c0.1,0,0.1,0,0.2,0.1c0.2,0.2,0.5,0.4,0.7,0.6c0.1,0,0.1,0.1,0.1,0.3c-0.4,1.5-0.9,2.7-1.4,3.4c-0.3,0.3-0.5,0.5-0.9,0.5
			s-0.8-0.5-1.1-1.4c-0.4-1-0.8-2.3-0.9-3.9c-0.2-1.7-0.3-3.5-0.3-5.4c0-1.8,0.3-4.2,0.9-7h-4.4v6.5h2.3c0.2,0,0.3,0.1,0.3,0.3v0.7
			c0,0.2-0.1,0.3-0.3,0.3h-2.3v9.6c0,0.2-0.1,0.3-0.3,0.3h-0.8c-0.2,0-0.3-0.1-0.3-0.3v-9.6h-2.2c-0.2,0-0.2-0.1-0.2-0.3v-0.7
			c0-0.2,0.1-0.3,0.2-0.3h2.2L78.1,144.7L78.1,144.7z"/>
		<path class="st0" d="M92,143.6h5.5c0.3,0,0.4,0.1,0.4,0.3V160c0,0.7-0.3,1.2-0.8,1.6c-0.5,0.3-1.1,0.5-1.9,0.6
			c-0.2,0-0.2-0.1-0.3-0.3c0-0.3-0.2-0.7-0.5-1.3c0-0.1,0.1-0.1,0.1-0.1c0.8,0,1.3-0.1,1.5-0.3s0.3-0.4,0.3-0.8v-4h-3.5
			c0,0.2,0,0.3-0.1,0.5c-0.1,1.3-0.4,2.6-0.9,4c-0.2,0.8-0.5,1.6-1,2.3c-0.1,0-0.2,0-0.2,0c-0.2-0.2-0.5-0.4-0.8-0.6
			c-0.1-0.1-0.1-0.2-0.1-0.3c0.4-0.7,0.7-1.6,0.9-2.7c0.3-1.2,0.5-2.5,0.6-3.9s0.2-3.1,0.2-5.1V144C91.7,143.7,91.8,143.6,92,143.6z
			 M93,154h3.4v-4h-3.3C93.2,151.6,93.1,152.9,93,154z M93.2,148.7h3.3v-3.8h-3.3V148.7z M99.6,152.4h7.8c0.1,0,0.3,0,0.3,0.1
			c0.3,0.4,0.4,0.6,0.4,0.7c-0.4,1.2-0.7,2.2-1,2.9c-0.4,0.9-0.8,1.6-1.2,2.1c-0.2,0.2-0.4,0.5-0.6,0.7c0.5,0.4,1,0.7,1.6,1
			c0.7,0.4,1.7,0.7,2.9,1c0.1,0,0.2,0.1,0.2,0.1c0,0.1,0,0.2-0.1,0.2c-0.2,0.2-0.5,0.5-0.7,0.7c-0.1,0.1-0.2,0.2-0.2,0.2
			s-0.2,0-0.4-0.1c-0.6-0.2-1.2-0.4-1.9-0.7c-0.8-0.4-1.5-0.8-2.2-1.3c-0.1-0.1-0.2-0.1-0.3-0.2c-0.7,0.6-1.4,1-2.3,1.4
			c-0.6,0.3-1.3,0.6-2.2,0.8c-0.2,0-0.3-0.1-0.4-0.2c-0.2-0.2-0.3-0.5-0.5-0.7c-0.1-0.1-0.1-0.1-0.1-0.2c0-0.1,0-0.1,0.1-0.1
			c0.6-0.1,1.1-0.3,1.7-0.5c1-0.4,1.9-0.9,2.6-1.4l0,0c-0.2-0.2-0.3-0.3-0.5-0.5c-0.6-0.7-1-1.3-1.3-2c-0.4-0.7-0.7-1.6-1-2.7h-0.8
			c-0.2,0-0.3-0.1-0.3-0.3v-0.7C99.3,152.5,99.4,152.4,99.6,152.4z M101.1,143.7h5c0.2,0,0.3,0.1,0.3,0.3v4.9c0,0.2,0.1,0.3,0.2,0.3
			c0.1,0.1,0.3,0.1,0.6,0.1h0.3c0.3,0,0.5-0.1,0.6-0.3c0.1-0.3,0.2-0.8,0.3-1.6c0-0.1,0.1-0.1,0.2-0.1s0.1,0,0.3,0.1
			c0.2,0.1,0.4,0.1,0.7,0.2c0.2,0,0.3,0.2,0.3,0.3c-0.2,1-0.4,1.8-0.6,2.4c-0.2,0.4-0.5,0.6-1.1,0.6h-1.7c-0.5,0-1-0.1-1.2-0.3
			c-0.2-0.1-0.3-0.3-0.3-0.6v-5h-2.7v1c0,0.9-0.1,1.8-0.3,2.6c-0.2,0.7-0.5,1.3-0.9,1.8c-0.3,0.3-0.7,0.7-1.1,1
			c-0.2,0-0.3-0.1-0.4-0.1c-0.2-0.3-0.4-0.5-0.6-0.7c-0.1-0.1-0.1-0.2-0.1-0.3c0.9-0.6,1.4-1.4,1.7-2.2c0.2-0.6,0.2-1.3,0.2-2.1v-2
			C100.7,143.8,100.9,143.7,101.1,143.7z M101.8,153.7c0.1,0.5,0.3,1,0.5,1.4c0.3,0.8,0.7,1.4,1.2,2.1c0.2,0.3,0.4,0.6,0.7,0.8
			c0.3-0.3,0.5-0.5,0.7-0.8c0.4-0.6,0.8-1.3,1.1-2c0.2-0.4,0.4-0.9,0.5-1.4h-4.7V153.7z"/>
		<path class="st0" d="M117.5,143.4c1.2,0.6,1.7,1,1.7,1.1s-0.1,0.2-0.2,0.2c-0.2,0-0.4,0.1-0.5,0.2c-0.6,1.6-1.1,2.9-1.7,3.9V162
			c0,0.2-0.1,0.3-0.3,0.3h-0.8c-0.2,0-0.3-0.1-0.3-0.3v-10.9c-0.4,0.6-1,1.3-1.6,2c-0.2,0-0.3-0.1-0.4-0.2c-0.2-0.2-0.4-0.4-0.7-0.6
			c-0.1-0.1-0.2-0.2-0.2-0.3c0.6-0.7,1.1-1.4,1.7-2.1c0.7-1,1.4-2.1,1.9-3.3c0.5-1.1,0.9-2.1,1.1-3.2
			C117.4,143.5,117.4,143.4,117.5,143.4z M121.7,145.7l1.4,0.6c0.1,0.1,0.2,0.2,0.2,0.3s-0.1,0.2-0.2,0.3c-0.2,0-0.3,0.1-0.3,0.2
			c-0.4,1.1-0.8,1.9-1.1,2.4c-0.4,0.6-0.7,1.2-1.1,1.7s-0.8,0.9-1.3,1.3c-0.2,0-0.3,0-0.5-0.1c-0.3-0.1-0.5-0.2-0.8-0.3
			c-0.1,0-0.1-0.1-0.1-0.1c0-0.1,0-0.1,0.1-0.1c0.7-0.6,1.3-1.3,1.9-2.1c0.3-0.5,0.6-1,0.9-1.5c0.3-0.6,0.5-1.3,0.8-2.2
			C121.6,145.8,121.7,145.7,121.7,145.7z M120.7,151.9h9.5c0.2,0,0.2,0.1,0.2,0.3c0,2.7-0.1,4.7-0.3,5.9c-0.2,1.4-0.4,2.5-0.7,3.2
			c-0.3,0.8-1.1,1.1-2.3,1.1s-1.8-0.1-1.9-0.4c-0.1-0.3-0.3-0.7-0.7-1.2v-0.1c0.9,0.1,1.8,0.1,2.6,0.1c0.6,0,1-0.3,1.2-0.8
			c0.2-0.4,0.4-1.2,0.5-2.4c0.1-0.9,0.2-2.4,0.3-4.4h-4.3c-0.1,1.7-0.2,2.9-0.4,3.7c-0.3,1.1-0.7,2.1-1.2,2.8
			c-0.4,0.6-1,1.1-1.6,1.5s-1.3,0.8-2.2,1.2c-0.4-0.4-0.7-0.8-1-1.1c0.5-0.1,1-0.4,1.7-0.8c0.7-0.5,1.3-0.9,1.7-1.5
			c0.6-0.8,0.9-1.6,1.2-2.6c0.2-0.8,0.3-1.9,0.4-3.3h-2.6c-0.2,0-0.2-0.1-0.2-0.3v-0.7C120.5,152,120.6,151.9,120.7,151.9z
			 M123.2,143.6h5.6c0.1,0,0.1,0.1,0.1,0.2c0,1.5,0.4,2.9,1.1,4.2c0.7,1.2,1.5,2.2,2.4,3.1c0,0.2-0.1,0.3-0.2,0.3
			c-0.5,0.5-0.8,0.7-1,0.7c-1.2-1.2-2.1-2.5-2.8-3.8c-0.4-1-0.7-2.1-0.9-3.4h-4.3c-0.2,0-0.2-0.1-0.2-0.3V144
			C123,143.8,123.1,143.6,123.2,143.6z"/>
		<path class="st0" d="M135.4,145.6h6.4c0.3-0.7,0.6-1.5,0.8-2.3c0.1-0.2,0.2-0.3,0.3-0.3l1.7,0.6c0.2,0.1,0.3,0.2,0.3,0.3
			c0,0.2-0.1,0.3-0.2,0.3c-0.4,0-0.6,0.1-0.7,0.4c-0.1,0.3-0.3,0.6-0.4,0.9h10.2c0.2,0,0.3,0.1,0.3,0.3v0.7c0,0.2-0.1,0.3-0.3,0.3
			H143c-0.4,0.9-0.8,1.5-1.2,2.1c-0.1,0.1-0.1,0.2-0.2,0.3h9.9c0.3,0,0.4,0.1,0.4,0.3v11.2c0,0.5-0.3,0.8-1,1.1
			c-0.7,0.2-1.5,0.4-2.6,0.4c-0.1,0-0.2-0.1-0.3-0.3c0-0.3-0.2-0.7-0.5-1.3c0-0.1,0.1-0.1,0.2-0.1c1.3,0,2,0,2.3-0.1
			s0.4-0.3,0.4-0.5v-1.5h-9v3.5c0,0.2-0.1,0.3-0.3,0.3h-0.9c-0.2,0-0.3-0.1-0.3-0.3v-10.5c-0.1,0.2-0.3,0.3-0.4,0.5
			c-0.8,0.9-1.7,1.6-2.6,2.3c-0.2,0-0.4,0-0.5-0.1c-0.3-0.1-0.6-0.3-0.9-0.4c-0.1,0-0.1-0.1-0.1-0.1c0-0.1,0.1-0.2,0.2-0.3
			c1.4-1,2.7-2.2,3.8-3.7c0.7-0.9,1.3-1.8,1.7-2.7c0-0.1,0.1-0.2,0.1-0.2h-5.8c-0.2,0-0.3-0.1-0.3-0.3V146
			C135.2,145.7,135.3,145.6,135.4,145.6z M141.4,153.3h9v-2.5h-9V153.3z M141.4,157.3h9v-2.7h-9V157.3z"/>
		<path class="st0" d="M159.4,144.9V162c0,0.2-0.1,0.3-0.3,0.3h-0.9c-0.2,0-0.3-0.1-0.3-0.3v-18.1c0-0.2,0.1-0.2,0.3-0.2h5.7
			c0.2,0,0.4,0,0.5,0.1c0.4,0.3,0.6,0.5,0.6,0.6l-2.8,5.7c-0.1,0.1-0.1,0.2-0.1,0.3s0.1,0.2,0.1,0.3c0.7,0.6,1.2,1.4,1.7,2.3
			c0.4,0.9,0.7,1.9,0.7,2.8c0,0.8-0.1,1.5-0.4,2.1c-0.3,0.6-0.7,1.1-1.3,1.3c-0.4,0.3-1,0.4-1.8,0.4c-0.4,0-0.6-0.1-0.6-0.4
			c-0.1-0.5-0.2-0.9-0.4-1.1c0-0.2,0.1-0.3,0.3-0.3l1,0.2c0.6,0,1-0.2,1.3-0.7c0.3-0.4,0.4-0.9,0.4-1.5c0-0.7-0.2-1.4-0.5-2.2
			c-0.5-0.9-1.1-1.8-2-2.7c-0.1-0.1-0.2-0.2-0.2-0.2c0-0.1,0-0.2,0.1-0.3l2.9-5.4h-4V144.9z M167.4,152.4v7.1c0.9-0.3,1.7-0.6,2.6-1
			h0.1c0.1,0,0.2,0.1,0.2,0.3c0,0.8,0,1.2-0.1,1.2c-1.6,0.7-3.2,1.2-4.8,1.7c-0.2,0.4-0.4,0.6-0.6,0.6c-0.1,0-0.4-0.6-0.8-1.8
			c0.6-0.1,1.2-0.3,2-0.5v-16c0-0.2,0.1-0.3,0.3-0.3h8.5c0.2,0,0.3,0.1,0.3,0.2v8.1c0,0.2-0.1,0.3-0.3,0.3h-3.9
			c0.1,0.6,0.2,1.2,0.3,1.7c0.2,0.9,0.5,1.7,0.9,2.4v0.1c0.5-0.3,1-0.6,1.3-0.9c0.6-0.5,1.3-1.1,1.9-2c0.1-0.1,0.2-0.1,0.2-0.1
			c0.9,0.7,1.3,1.1,1.3,1.2c0,0.1-0.1,0.1-0.3,0.1c-0.3,0-0.5,0-0.5,0.1c-1,1.1-2.1,2.1-3.3,2.8c0.1,0.1,0.2,0.2,0.2,0.3
			c0.4,0.5,0.9,1,1.4,1.5c0.6,0.4,1.3,0.8,2.1,1.2c0.1,0,0.1,0.1,0.1,0.1c0,0.1,0,0.2-0.1,0.2c-0.3,0.2-0.5,0.5-0.8,0.8
			c-0.1,0.1-0.2,0.2-0.2,0.2s-0.1-0.1-0.3-0.2c-0.4-0.2-0.9-0.5-1.3-0.8c-0.6-0.4-1.1-0.9-1.6-1.5c-0.6-0.7-1-1.3-1.3-1.9
			c-0.4-0.8-0.7-1.6-0.9-2.4c-0.3-0.8-0.5-1.8-0.7-3.1h-1.9V152.4z M167.4,145v2.3h6.1V145H167.4z M167.4,148.6v2.4h6.1v-2.4H167.4z
			"/>
		<path class="st0" d="M185.4,144.1l1.5,0.6c0.2,0.1,0.2,0.2,0.2,0.3c0,0.2-0.1,0.3-0.3,0.3c-0.3,0-0.4,0.1-0.5,0.3
			c-0.6,1.5-1.1,2.7-1.6,3.4c-0.5,0.8-1.1,1.6-1.6,2.4c-0.6,0.7-1.2,1.3-1.9,1.8c-0.2,0-0.4,0-0.5-0.1c-0.3-0.1-0.6-0.2-0.9-0.4
			c-0.1,0-0.1-0.1-0.1-0.1c0-0.1,0-0.2,0.1-0.2c1-0.8,2-1.8,2.8-2.9c0.5-0.7,0.9-1.4,1.3-2.1c0.4-0.8,0.8-1.8,1.1-3.1
			C185.3,144.2,185.4,144.1,185.4,144.1z M188.7,149.1c0.1,0,0.2,0,0.3,0.1c1.1,0.6,1.7,0.9,1.7,1s-0.1,0.2-0.3,0.2
			c-0.3,0-0.5,0.2-0.6,0.4c-1.1,2-2.6,4.8-4.5,8.4c2.6-0.2,5.7-0.6,9.3-1c-0.7-1.1-1.3-2.1-1.9-3c0-0.2,0.4-0.4,1.1-0.7
			c0.1,0,0.1,0,0.1,0.1c1.5,2,2.9,4.1,4.1,6.4c0,0.2,0,0.3-0.1,0.4c-0.5,0.4-1,0.6-1.3,0.6c-0.4-0.9-0.9-1.7-1.3-2.4
			c-6.4,1-10.5,1.6-12.4,1.8c-0.2,0-0.4,0.1-0.4,0.3c-0.1,0.2-0.2,0.3-0.3,0.3c-0.2,0-0.5-0.8-0.7-2.3c0.7,0,1.5-0.1,2.3-0.1
			c1.6-3.1,2.7-5.1,3.1-6c0.6-1.3,1.1-2.6,1.5-3.9C188.4,149.2,188.5,149.1,188.7,149.1z M189.3,143.6h4.4c0.1,0,0.2,0.1,0.3,0.3
			c0.5,2.3,1,4,1.6,4.9c0.7,1.5,1.7,2.5,3.1,3.1c0.2,0,0.3,0.2,0.3,0.3s-0.1,0.1-0.1,0.2c-0.3,0.3-0.5,0.5-0.7,0.7
			c-0.1,0.2-0.2,0.2-0.4,0.2c-1.5-1-2.7-2.2-3.4-3.5c-0.5-1-1.1-2.6-1.6-5h-3.4c-0.2,0-0.3-0.1-0.3-0.3v-0.7
			C189,143.7,189.1,143.6,189.3,143.6z"/>
		<path class="st0" d="M203.2,143.7h16.4c0.3,0,0.4,0.1,0.4,0.3v16c0,0.7-0.4,1.2-1.2,1.6c-0.8,0.3-1.8,0.5-3,0.6
			c-0.2,0-0.2-0.1-0.3-0.3c0-0.3-0.2-0.7-0.5-1.3c0-0.1,0.1-0.1,0.3-0.1c1.5,0,2.5-0.1,2.7-0.3c0.3-0.2,0.5-0.4,0.5-0.8V145h-15.3
			c-0.2,0-0.3-0.1-0.3-0.3V144C203,143.8,203,143.7,203.2,143.7z M204,147.8h11c0.2,0,0.2,0.1,0.2,0.3v0.7c0,0.2-0.1,0.3-0.2,0.3
			h-11c-0.2,0-0.3-0.1-0.3-0.3v-0.7C203.8,147.9,203.9,147.8,204,147.8z M205.4,151.5h8.6c0.2,0,0.3,0.1,0.3,0.3v6.8
			c0,0.2-0.1,0.3-0.3,0.3h-0.8c-0.2,0-0.3-0.1-0.3-0.3v-0.8h-6.3v2.3c0,0.2-0.1,0.3-0.3,0.3h-0.8c-0.2,0-0.3-0.1-0.3-0.3v-8.2
			C205,151.6,205.2,151.5,205.4,151.5z M206.5,156.4h6.3v-3.6h-6.3V156.4z"/>
	</g>
</g>
</svg>
