<?xml version="1.0" encoding="utf-8"?>
<!-- Generator: Adobe Illustrator 22.1.0, SVG Export Plug-In . SVG Version: 6.00 Build 0)  -->
<svg version="1.1" id="圖層_1" xmlns="http://www.w3.org/2000/svg" xmlns:xlink="http://www.w3.org/1999/xlink" x="0px" y="0px"
	 viewBox="0 0 70 70" style="enable-background:new 0 0 70 70;" xml:space="preserve">
<style type="text/css">
	.st0{opacity:0.16;fill:#6A6AA3;}
	.st1{fill:#007AFF;}
</style>
<g>
	<path class="st0" d="M25.8,66.1l-5.1-5l-4,4.3h-0.4c-3.7,0-6.3-6-6.3-9.3V15.9c0-3.5,2.8-6.3,6.3-6.3h42.5c3.5,0,6.3,2.8,6.3,6.3
		v40.2c0,3.3-2.6,9.3-6.3,9.3H58l-1.5-3.3L51.2,66l-2.5-5.7L44,66.1l-4-5.7l-5.2,5.5l-6-5.8L25.8,66.1z"/>
	<path class="st1" d="M20.8,61.1l-5.1-5l-4,4.3h-0.4c-3.7,0-6.3-6-6.3-9.3V10.9c0-3.5,2.8-6.3,6.3-6.3h42.5c3.5,0,6.3,2.8,6.3,6.3
		v40.2c0,3.3-2.6,9.3-6.3,9.3H53l-1.5-3.3L46.2,61l-2.5-5.7L39,61.1l-4-5.7l-5.2,5.5l-6-5.8L20.8,61.1z M11.2,6.6
		c-2.4,0-4.3,1.9-4.3,4.3v40.2c0,2.5,1.9,6.8,3.9,7.3l4.8-5.1l4.6,4.5l3.1-6.1l6.4,6.3l5.5-5.8l3.9,5.6l5.1-6.3l2.8,6.5l5.3-3.9
		l2,4.3c1.9-0.7,3.7-4.8,3.7-7.2V10.9c0-2.4-1.9-4.3-4.3-4.3H11.2z"/>
	<rect x="5" y="14.3" class="st1" width="54" height="2"/>
	<circle class="st1" cx="11.4" cy="11.1" r="1.5"/>
	<circle class="st1" cx="15.4" cy="11.1" r="1.5"/>
	<circle class="st1" cx="19.4" cy="11.1" r="1.5"/>
	<path class="st1" d="M47.9,36.2H17c-0.6,0-1-0.4-1-1s0.4-1,1-1h31c0.6,0,1,0.4,1,1S48.5,36.2,47.9,36.2z"/>
	<path class="st1" d="M44.2,43.1c-2.4,0-4.3-1.9-4.3-4.3v-3.1c0-0.6,0.4-1,1-1s1,0.4,1,1v3.1c0,1.3,1,2.3,2.3,2.3s2.3-1,2.3-2.3
		v-3.1c0-0.6,0.4-1,1-1s1,0.4,1,1v3.1C48.5,41.2,46.6,43.1,44.2,43.1z"/>
	<path class="st1" d="M44,39.3c-0.6,0-1-0.4-1-1v-2.7c0-0.6,0.4-1,1-1s1,0.4,1,1v2.7C45,38.9,44.5,39.3,44,39.3z"/>
	<g>
		<path class="st1" d="M22.9,30.3c-0.3,0-0.5-0.1-0.7-0.3l-6-6c-0.4-0.4-0.4-1,0-1.4s1-0.4,1.4,0l6,6c0.4,0.4,0.4,1,0,1.4
			C23.4,30.2,23.2,30.3,22.9,30.3z"/>
		<path class="st1" d="M17,30.3c-0.3,0-0.5-0.1-0.7-0.3c-0.4-0.4-0.4-1,0-1.4l6-6c0.4-0.4,1-0.4,1.4,0s0.4,1,0,1.4l-6,6
			C17.5,30.2,17.2,30.3,17,30.3z"/>
	</g>
	<g>
		<path class="st1" d="M46.8,30.3c-0.3,0-0.5-0.1-0.7-0.3l-6-6c-0.4-0.4-0.4-1,0-1.4s1-0.4,1.4,0l6,6c0.4,0.4,0.4,1,0,1.4
			C47.3,30.2,47.1,30.3,46.8,30.3z"/>
		<path class="st1" d="M40.9,30.3c-0.3,0-0.5-0.1-0.7-0.3c-0.4-0.4-0.4-1,0-1.4l6-6c0.4-0.4,1-0.4,1.4,0s0.4,1,0,1.4l-6,6
			C41.4,30.2,41.1,30.3,40.9,30.3z"/>
	</g>
</g>
</svg>
