<?xml version="1.0" encoding="utf-8"?>
<!-- Generator: Adobe Illustrator 22.1.0, SVG Export Plug-In . SVG Version: 6.00 Build 0)  -->
<svg version="1.1" id="圖層_1" xmlns="http://www.w3.org/2000/svg" xmlns:xlink="http://www.w3.org/1999/xlink" x="0px" y="0px"
	 viewBox="0 0 44 44" style="enable-background:new 0 0 44 44;" xml:space="preserve">
<style type="text/css">
	.st0{fill:#4C76BE;}
	.st1{fill:#FFFFFF;}
</style>
<g transform="translate(-56.688 -69.612)">
	<g transform="translate(56.688 69.612)">
		<path class="st0" d="M42.6,15.1c3.7,11.4-2.5,23.7-14,27.4C17.2,46.2,4.9,40,1.2,28.5s2.5-23.7,14-27.4C17.4,0.4,19.6,0,21.9,0
			C31.4,0,39.7,6.1,42.6,15.1z"/>
	</g>
	<path class="st1" d="M81.6,85.2c0.6,0,1.2,0,1.8,0h0.2v-3.1c-0.3,0-0.6-0.1-1-0.1c-0.6,0-1.2-0.1-1.8,0c-0.9,0-1.8,0.3-2.6,0.8
		c-0.8,0.6-1.4,1.5-1.5,2.6c-0.1,0.4-0.1,0.9-0.1,1.3c0,0.7,0,1.4,0,2.1v0.3h-2.9v3.4h2.9v8.6h3.6v-8.6H83c0.1-1.1,0.3-2.3,0.4-3.4
		c-0.2,0-0.4,0-0.7,0c-0.8,0-2.7,0-2.7,0s0-1.7,0-2.4C80.2,85.5,80.8,85.2,81.6,85.2z"/>
</g>
</svg>
