<?xml version="1.0" encoding="utf-8"?>
<!-- Generator: Adobe Illustrator 22.1.0, SVG Export Plug-In . SVG Version: 6.00 Build 0)  -->
<svg version="1.1" id="圖層_1" xmlns="http://www.w3.org/2000/svg" xmlns:xlink="http://www.w3.org/1999/xlink" x="0px" y="0px"
	 viewBox="0 0 44 44" style="enable-background:new 0 0 44 44;" xml:space="preserve">
<style type="text/css">
	.st0{fill:#00C500;}
	.st1{fill:#FFFFFF;}
</style>
<g transform="translate(-132.019 -69.772)">
	<g transform="translate(132.019 69.772)">
		<path class="st0" d="M42.9,15.2c3.8,11.6-2.6,24-14.1,27.7c-11.6,3.8-24-2.6-27.7-14.1c-3.8-11.6,2.6-24,14.1-27.7
			C17.4,0.4,19.7,0,22,0C31.5,0,40,6.1,42.9,15.2z"/>
	</g>
	<g transform="translate(140.461 78.972)">
		<path class="st1" d="M27.2,12.1c0.1-0.3,0.1-0.6,0.1-0.8c0-0.4,0-0.7,0-1.1C26.9,4.4,20.9-0.2,13.6-0.2C6-0.2-0.2,4.7-0.2,10.7
			c0,5.5,5.2,10.1,11.9,10.8c0.4,0,0.7,0.4,0.7,0.8c0,0,0,0,0,0L12.1,25c0,0.4,0.2,0.8,0.7,0.8c0.1,0,0.3,0,0.4-0.1
			c5.7-2.7,9.1-5.6,11.1-8c0.4-0.4,1.6-2.1,1.8-2.6C26.7,14.2,27,13.2,27.2,12.1z"/>
		<path class="st0" d="M6,12.9V8.3c0-0.4-0.3-0.7-0.7-0.7l0,0c-0.4,0-0.7,0.3-0.7,0.7v5.3c0,0.4,0.3,0.7,0.7,0.7l0,0h2.8
			c0.4,0,0.7-0.3,0.7-0.7l0,0c0-0.4-0.3-0.7-0.7-0.7H6z"/>
		<path class="st0" d="M10.3,14.3H10c-0.3,0-0.5-0.2-0.5-0.6v0V8.2c0-0.3,0.2-0.5,0.5-0.6c0,0,0,0,0,0h0.3c0.3,0,0.6,0.2,0.6,0.6v0
			v5.6C10.9,14.1,10.6,14.3,10.3,14.3L10.3,14.3z"/>
		<path class="st0" d="M16,8.3v3.2c0,0-2.8-3.7-2.8-3.7c-0.1-0.2-0.3-0.2-0.6-0.2c-0.4,0-0.7,0.3-0.7,0.7v5.3c0,0.4,0.3,0.7,0.7,0.7
			l0,0c0.4,0,0.7-0.3,0.7-0.7v-3.2c0,0,2.8,3.7,2.9,3.7c0.1,0.1,0.3,0.2,0.5,0.2c0.4,0,0.7-0.3,0.7-0.7V8.3c0-0.4-0.3-0.7-0.7-0.7
			l0,0C16.3,7.6,16,7.9,16,8.3z"/>
		<path class="st0" d="M22.7,8.3L22.7,8.3c0-0.4-0.3-0.7-0.7-0.7h-2.8c-0.4,0-0.7,0.3-0.7,0.7v5.3c0,0.4,0.3,0.7,0.7,0.7l0,0H22
			c0.4,0,0.7-0.3,0.7-0.7c0,0,0,0,0,0l0,0c0-0.4-0.3-0.7-0.7-0.7h-2.1v-1.2H22c0.4,0,0.7-0.3,0.7-0.7l0,0c0-0.4-0.3-0.7-0.7-0.7
			c0,0,0,0,0,0h-2.1V9H22C22.4,9,22.7,8.7,22.7,8.3C22.7,8.3,22.7,8.3,22.7,8.3z"/>
	</g>
</g>
</svg>
