<?xml version="1.0" encoding="utf-8"?>
<!-- Generator: Adobe Illustrator 22.1.0, SVG Export Plug-In . SVG Version: 6.00 Build 0)  -->
<svg version="1.1" id="圖層_1" xmlns="http://www.w3.org/2000/svg" xmlns:xlink="http://www.w3.org/1999/xlink" x="0px" y="0px"
	 viewBox="0 0 20 20" style="enable-background:new 0 0 20 20;" xml:space="preserve">
<style type="text/css">
	.st0{fill:#C2C4C7;}
	.st1{fill:#B3B6B9;}
</style>
<path class="st0" d="M2410.2,1417.7l-13.9-11.4c-0.2-0.2-0.2-0.5-0.1-0.7l0,0c0.2-0.2,0.5-0.2,0.7-0.1l13.9,11.4
	c0.2,0.2,0.2,0.5,0.1,0.7l0,0C2410.7,1417.9,2410.4,1417.9,2410.2,1417.7z"/>
<path class="st0" d="M2396.3,1416.9l13.9-11.4c0.2-0.2,0.5-0.1,0.7,0.1l0,0c0.2,0.2,0.1,0.5-0.1,0.7l-13.9,11.4
	c-0.2,0.2-0.5,0.1-0.7-0.1l0,0C2396,1417.4,2396,1417.1,2396.3,1416.9z"/>
<path class="st1" d="M10.7,10l6.1-6.1c0.2-0.2,0.2-0.5,0-0.7s-0.5-0.2-0.7,0L10,9.3L3.9,3.2C3.7,3,3.4,3,3.2,3.2S3,3.7,3.2,3.9
	L9.3,10l-6.1,6.1c-0.2,0.2-0.2,0.5,0,0.7C3.3,16.9,3.4,17,3.5,17s0.3,0,0.4-0.1l6.1-6.1l6.1,6.1c0.1,0.1,0.2,0.1,0.4,0.1
	s0.3,0,0.4-0.1c0.2-0.2,0.2-0.5,0-0.7L10.7,10z"/>
</svg>
