<?xml version="1.0" encoding="utf-8"?>
<!-- Generator: Adobe Illustrator 18.0.0, SVG Export Plug-In . SVG Version: 6.00 Build 0)  -->
<!DOCTYPE svg PUBLIC "-//W3C//DTD SVG 1.1//EN" "http://www.w3.org/Graphics/SVG/1.1/DTD/svg11.dtd" [
	<!ENTITY ns_extend "http://ns.adobe.com/Extensibility/1.0/">
	<!ENTITY ns_ai "http://ns.adobe.com/AdobeIllustrator/10.0/">
	<!ENTITY ns_graphs "http://ns.adobe.com/Graphs/1.0/">
	<!ENTITY ns_vars "http://ns.adobe.com/Variables/1.0/">
	<!ENTITY ns_imrep "http://ns.adobe.com/ImageReplacement/1.0/">
	<!ENTITY ns_sfw "http://ns.adobe.com/SaveForWeb/1.0/">
	<!ENTITY ns_custom "http://ns.adobe.com/GenericCustomNamespace/1.0/">
	<!ENTITY ns_adobe_xpath "http://ns.adobe.com/XPath/1.0/">
]>
<svg version="1.1" id="Capa_1" xmlns:x="&ns_extend;" xmlns:i="&ns_ai;" xmlns:graph="&ns_graphs;"
	 xmlns="http://www.w3.org/2000/svg" xmlns:xlink="http://www.w3.org/1999/xlink" x="0px" y="0px" viewBox="0 0 220 220"
	 enable-background="new 0 0 220 220" xml:space="preserve">
<metadata>
	<sfw  xmlns="&ns_sfw;">
		<slices></slices>
		<sliceSourceBounds  width="220" height="220" y="0" x="0" bottomLeftOrigin="true"></sliceSourceBounds>
	</sfw>
</metadata>
<circle opacity="0.5" fill="#FFB300" enable-background="new    " cx="110" cy="110" r="110"/>
<circle fill="#FFB300" cx="110" cy="110" r="95"/>
<g>
	<g id="gps-fixed">
		<path fill="#FFFFFF" d="M110,86.4C97,86.4,86.4,97,86.4,110S97,133.6,110,133.6s23.6-10.6,23.6-23.6S123,86.4,110,86.4z
			 M162.6,104.1c-3-24.8-22.5-44.3-46.7-46.7V45h-11.8v12.4c-24.8,2.4-44.3,21.9-46.7,46.7H45v11.8h12.4c3,24.8,22.5,44.3,46.7,46.7
			V175h11.8v-12.4c24.8-3,44.3-22.5,46.7-46.7H175v-11.8C175,104.1,162.6,104.1,162.6,104.1z M110,151.4c-23,0-41.4-18.3-41.4-41.4
			S87,68.6,110,68.6S151.4,87,151.4,110S133,151.4,110,151.4z"/>
	</g>
</g>
</svg>
