<?xml version="1.0" encoding="utf-8"?>
<!-- Generator: Adobe Illustrator 18.0.0, SVG Export Plug-In . SVG Version: 6.00 Build 0)  -->
<!DOCTYPE svg PUBLIC "-//W3C//DTD SVG 1.1//EN" "http://www.w3.org/Graphics/SVG/1.1/DTD/svg11.dtd" [
	<!ENTITY ns_extend "http://ns.adobe.com/Extensibility/1.0/">
	<!ENTITY ns_ai "http://ns.adobe.com/AdobeIllustrator/10.0/">
	<!ENTITY ns_graphs "http://ns.adobe.com/Graphs/1.0/">
	<!ENTITY ns_vars "http://ns.adobe.com/Variables/1.0/">
	<!ENTITY ns_imrep "http://ns.adobe.com/ImageReplacement/1.0/">
	<!ENTITY ns_sfw "http://ns.adobe.com/SaveForWeb/1.0/">
	<!ENTITY ns_custom "http://ns.adobe.com/GenericCustomNamespace/1.0/">
	<!ENTITY ns_adobe_xpath "http://ns.adobe.com/XPath/1.0/">
]>
<svg version="1.1" id="Capa_1" xmlns:x="&ns_extend;" xmlns:i="&ns_ai;" xmlns:graph="&ns_graphs;"
	 xmlns="http://www.w3.org/2000/svg" xmlns:xlink="http://www.w3.org/1999/xlink" x="0px" y="0px" viewBox="0 0 283.5 283.5"
	 enable-background="new 0 0 283.5 283.5" xml:space="preserve">
<metadata>
	<sfw  xmlns="&ns_sfw;">
		<slices></slices>
		<sliceSourceBounds  width="221.3" height="283.5" x="31.1" y="0" bottomLeftOrigin="true"></sliceSourceBounds>
	</sfw>
</metadata>
<g>
	<path fill="#FC5E43" d="M143.9,255.7c-5.8-16.2-17.3-27.2-28.7-38.3c-2.6-2.6-5.4-4.3-8.9-5.5c-46.5-15.8-76.1-57.7-75.2-106.4
		C32,53.2,73.4,7.9,126.5,1c58.3-7.6,110.7,28.7,123.4,85.6c11.4,50.8-17.3,103.7-67.1,123.1c-5.2,2-9.5,4.8-13.3,9
		C159.5,229.7,148.9,240.3,143.9,255.7z"/>
	<path fill="#FC5E43" d="M153.7,273.5c-0.1,5.3-4.8,10-10,10c-5.5,0-10.2-5-10-10.7c0.2-5.5,4.8-9.7,10.3-9.5
		C149.4,263.4,153.9,268.1,153.7,273.5z"/>
</g>
<g>
	<path fill="#FFFFFF" d="M205.8,88.6c-0.5-0.5-1.2-0.8-1.9-0.8h-37.1c5.2,0,9.7-1.8,13.4-5.5c3.7-3.7,5.5-8.1,5.5-13.4
		c0-5.2-1.8-9.7-5.5-13.4c-3.7-3.7-8.1-5.5-13.4-5.5c-6,0-10.7,2.2-14.2,6.5l-10.8,13.9L131,56.5c-3.4-4.3-8.2-6.5-14.2-6.5
		c-5.2,0-9.7,1.8-13.4,5.5c-3.7,3.7-5.5,8.1-5.5,13.4c0,5.2,1.8,9.7,5.5,13.4c3.7,3.7,8.1,5.5,13.4,5.5H79.6c-0.8,0-1.4,0.3-1.9,0.8
		c-0.5,0.5-0.8,1.2-0.8,1.9v27c0,0.8,0.3,1.4,0.8,1.9c0.5,0.5,1.2,0.8,1.9,0.8h8.1v35.1c0,2.3,0.8,4.2,2.4,5.7
		c1.6,1.6,3.5,2.4,5.7,2.4h91.8c2.3,0,4.2-0.8,5.7-2.4c1.6-1.6,2.4-3.5,2.4-5.7v-35.1h8.1c0.8,0,1.4-0.3,1.9-0.8
		c0.5-0.5,0.8-1.2,0.8-1.9v-27C206.5,89.7,206.3,89.1,205.8,88.6z M160.9,63.5c1.5-1.7,3.4-2.6,5.8-2.6c2.3,0,4.2,0.8,5.7,2.4
		c1.6,1.6,2.4,3.5,2.4,5.7c0,2.2-0.8,4.2-2.4,5.7c-1.6,1.6-3.5,2.4-5.7,2.4h-16.4L160.9,63.5z M116.8,77c-2.2,0-4.2-0.8-5.7-2.4
		c-1.6-1.6-2.4-3.5-2.4-5.7c0-2.2,0.8-4.2,2.4-5.7c1.6-1.6,3.5-2.4,5.7-2.4c2.4,0,4.4,0.9,5.8,2.6L133.2,77H116.8L116.8,77z
		 M155.2,104v39.5v4.7c0,1.4-0.5,2.5-1.5,3.2c-1,0.8-2.3,1.1-3.9,1.1h-16.2c-1.6,0-2.9-0.4-3.9-1.1c-1-0.8-1.5-1.8-1.5-3.2v-4.7V104
		V87.8h27L155.2,104L155.2,104z"/>
</g>
</svg>
