<?xml version="1.0" encoding="utf-8"?>
<!-- Generator: Adobe Illustrator 22.1.0, SVG Export Plug-In . SVG Version: 6.00 Build 0)  -->
<svg version="1.1" id="Capa_1" xmlns="http://www.w3.org/2000/svg" xmlns:xlink="http://www.w3.org/1999/xlink" x="0px" y="0px"
	 width="283.5px" height="283.5px" viewBox="0 0 283.5 283.5" style="enable-background:new 0 0 283.5 283.5;" xml:space="preserve"
	>
<style type="text/css">
	.st0{fill:url(#SVGID_1_);}
	.st1{fill:#FFFFFF;}
</style>
<linearGradient id="SVGID_1_" gradientUnits="userSpaceOnUse" x1="121.3381" y1="26.6917" x2="168.3381" y2="230.6917">
	<stop  offset="0" style="stop-color:#FBD979"/>
	<stop  offset="1" style="stop-color:#FF88BB"/>
</linearGradient>
<path class="st0" d="M38.3,112C38.3,55,84.7,8.9,141.7,9.3c55.6,0.4,101.2,45.6,102,101.2c0.4,25.2-8.3,48.3-23,66.3h0l-73.7,94.5
	c-3,3.8-8.8,3.8-11.8,0l-73.4-94h0.1C47.1,159.6,38.3,136.8,38.3,112z"/>
<path class="st1" d="M197.9,112c0,31.4-25.5,56.9-56.9,56.9c-31.4,0-56.9-25.5-56.9-56.9c0-31.4,25.5-56.9,56.9-56.9
	C172.4,55.1,197.9,80.5,197.9,112z"/>
</svg>
