<svg xmlns="http://www.w3.org/2000/svg" width="350" height="240" viewBox="0 0 350 240"><defs><style>.a{fill:#fff;}.b{fill:#fec500;}.c{fill:#616161;}.d{fill:#b2bfcb;}</style></defs><g transform="translate(613.098 322.152)"><rect class="a" width="350" height="240" transform="translate(-613.098 -322.152)"/><path class="b" d="M-470.287-153.036a3.5,3.5,0,0,0-2.2.755,21.047,21.047,0,0,0-2.831,2.475c-2.7,2.68-5.418,5.348-7.974,8.167-2.774,3.06-5.331,6.3-7.814,9.6-.428.569-.863,1.132-1.3,1.693a.821.821,0,0,1-1.246.239q-2.5-1.533-4.986-3.078c-.536-.333-.6-.785-.209-1.353q3.81-5.505,7.627-11.006,2.608-3.741,5.26-7.452c1.841-2.588,3.979-4.935,6.031-7.351,3.787-4.458,7.577-8.914,11.415-13.329,1.927-2.216,4.016-4.289,6.077-6.382,3.1-3.145,6.367-6.111,9.536-9.181a3,3,0,0,1,3.14-.59,6.683,6.683,0,0,1,1.611.757c5.626,3.267,11.183,6.649,16.754,10.009,6.048,3.648,11.949,7.532,17.923,11.3,4.279,2.7,8.526,5.446,12.671,8.346a4.9,4.9,0,0,1,2.3,3.352,5.592,5.592,0,0,1-.767,3.688c-1.213,2.092-2.459,4.165-3.713,6.232q-11.946,19.69-24.383,39.073-3.683,5.727-7.587,11.312c-.081.117-.161.235-.249.347a1.369,1.369,0,0,1-1.764.411,11.956,11.956,0,0,1-1.6-.955c-6.9-4.763-13.846-9.455-20.732-14.239a1.7,1.7,0,0,1-.462-2.616c2.464-3.447,4.575-7.113,6.753-10.738,2.331-3.882,4.544-7.828,6.523-11.9a7.016,7.016,0,0,0,.3-.713,1.6,1.6,0,0,0-.435-1.831,76.005,76.005,0,0,0-9.041-7.445,71.7,71.7,0,0,0-13.454-7.435A2.584,2.584,0,0,0-470.287-153.036Z" transform="translate(0 -57.315)"/><path class="c" d="M254.892-242.792c.468-.534.924-1.06,1.386-1.581q1.8-2.035,3.607-4.067c1.049-1.185,2.253-2.211,3.4-3.3.579-.548.789-.536,1.454-.071,9.085,6.361,18.093,12.827,26.818,19.677,3.868,3.037,7.626,6.211,11.43,9.326,5.018,4.109,9.8,8.491,14.692,12.746a4.113,4.113,0,0,1,1.1,1.39,2.1,2.1,0,0,1-.032,1.906,10.259,10.259,0,0,1-1.125,1.671c-5.1,6.544-10.49,12.851-15.946,19.1-5.293,6.065-10.516,12.192-15.92,18.159-3.119,3.444-6.4,6.733-9.64,10.065q-1.2,1.239-2.4,2.485a.95.95,0,0,1-1.4.236,15.38,15.38,0,0,1-2.174-1.49c-1.283-1.006-2.548-2.036-3.841-3.029-.285-.219-.246-.35-.074-.606,4.283-6.382,8.686-12.682,13.124-18.955,6.484-9.165,12.429-18.668,18.1-28.35a8.83,8.83,0,0,0,1.438-4.563,6.058,6.058,0,0,0-2.136-4.723,35.292,35.292,0,0,0-4.053-2.865c-5.141-3.366-10.258-6.771-15.453-10.052-3.191-2.015-6.509-3.83-9.768-5.737q-6.163-3.606-12.322-7.216C255.069-242.676,254.994-242.727,254.892-242.792Z" transform="translate(-695.429)"/><path class="d" d="M-302.164,463.261a16.789,16.789,0,0,1,.272-3.7,11.754,11.754,0,0,1,1.658-3.611c.439-.747.935-1.457,1.445-2.158a10.08,10.08,0,0,1,2.55-2.118,13.779,13.779,0,0,1,5.855-2.209,8.687,8.687,0,0,1,2.054-.016,14.282,14.282,0,0,1,3.862.75,12.676,12.676,0,0,1,4.051,2.231,8.268,8.268,0,0,1,2.556,4.6,11.936,11.936,0,0,1,.113,4.157,21.413,21.413,0,0,1-.359,2.642,10.457,10.457,0,0,1-2.11,3.932A16.325,16.325,0,0,1-284.7,471.7a11.434,11.434,0,0,1-4.089,1.707,12.95,12.95,0,0,1-6.806-.759,12.249,12.249,0,0,1-4.619-2.841,6.561,6.561,0,0,1-1.879-4.345C-302.126,464.732-302.151,464-302.164,463.261Z" transform="translate(-181.631 -647.057)"/></g></svg>