<!-- Generated by IcoMoon.io -->
<svg version="1.1" xmlns="http://www.w3.org/2000/svg" width="1024" height="1024" viewBox="0 0 1024 1024">
<title></title>
<g id="icomoon-ignore">
</g>
<path fill="#000" d="M8.397 520.602c0.423 22.789 18.786 41.152 41.534 41.574l0.040 0.001h932.454c22.961 0 41.574-18.613 41.574-41.574s-18.613-41.574-41.574-41.574h-932.454c-22.789 0.423-41.152 18.786-41.574 41.534l-0.001 0.040z"></path>
<path fill="#000" d="M13.21 549.427l402.79 403.046c7.377 7.492 17.47 12.291 28.682 12.797l0.093 0.003c11.371-0.168 21.569-5.051 28.752-12.775l0.023-0.025c7.414-7.351 12.004-17.539 12.004-28.8s-4.59-21.449-12.001-28.797l-374.275-374.275 374.272-374.272c5.537-6.924 8.885-15.808 8.885-25.474 0-22.622-18.338-40.96-40.96-40.96-9.666 0-18.55 3.348-25.555 8.948l0.082-0.063-402.79 403.046c-8.112 7.007-13.215 17.308-13.215 28.8s5.103 21.793 13.166 28.759l0.048 0.041z"></path>
</svg>
