<svg xmlns="http://www.w3.org/2000/svg" width="14.997" height="14.78" viewBox="0 0 14.997 14.78"><defs><style>.a{fill:none;stroke:gray;}</style></defs><path class="a" d="M-302.167,457.3a9.574,9.574,0,0,1,.155-2.111,6.7,6.7,0,0,1,.946-2.059c.25-.426.533-.831.824-1.23a5.746,5.746,0,0,1,1.454-1.208,7.858,7.858,0,0,1,3.339-1.26,4.955,4.955,0,0,1,1.171-.009,8.145,8.145,0,0,1,2.2.428,7.228,7.228,0,0,1,2.31,1.272,4.715,4.715,0,0,1,1.457,2.622,6.806,6.806,0,0,1,.064,2.371,12.2,12.2,0,0,1-.2,1.506,5.963,5.963,0,0,1-1.2,2.242,9.309,9.309,0,0,1-2.559,2.251,6.521,6.521,0,0,1-2.332.974,7.385,7.385,0,0,1-3.881-.433,6.985,6.985,0,0,1-2.634-1.62,3.741,3.741,0,0,1-1.072-2.478C-302.146,458.14-302.16,457.721-302.167,457.3Z" transform="translate(302.672 -448.898)"/></svg>