<svg xmlns="http://www.w3.org/2000/svg" width="10" height="7.847" viewBox="0 0 10 7.847"><defs><style>.a{fill:;}</style></defs><g transform="translate(0 -6.9)"><g transform="translate(0 6.9)"><path class="a" d="M.952,9.318c.125.094.5.359,1.139.8s1.123.78,1.466,1.014c.031.031.109.078.234.172s.218.156.3.218c.078.047.172.109.3.187a1.562,1.562,0,0,0,.328.156.883.883,0,0,0,.281.047h0a1.049,1.049,0,0,0,.281-.047A1.512,1.512,0,0,0,5.6,11.7c.109-.062.2-.125.3-.187a2.333,2.333,0,0,0,.3-.218c.125-.094.2-.14.234-.172.343-.234,1.217-.842,2.605-1.81a2.868,2.868,0,0,0,.686-.686A1.436,1.436,0,0,0,10,7.789a.849.849,0,0,0-.265-.624A.875.875,0,0,0,9.111,6.9H.889a.773.773,0,0,0-.655.3A1.074,1.074,0,0,0,0,7.914a1.353,1.353,0,0,0,.312.764A3.1,3.1,0,0,0,.952,9.318Z" transform="translate(0 -6.9)"/><path class="a" d="M9.423,23.584C8.206,24.41,7.285,25.05,6.646,25.5c-.218.156-.39.281-.515.359a2.777,2.777,0,0,1-.53.265,1.554,1.554,0,0,1-.608.14h0a1.554,1.554,0,0,1-.608-.14,5.552,5.552,0,0,1-.53-.265c-.125-.094-.3-.2-.515-.359Q2.59,24.941.577,23.584A2.964,2.964,0,0,1,0,23.1v4.431a.849.849,0,0,0,.265.624.875.875,0,0,0,.624.265H9.1a.849.849,0,0,0,.624-.265.875.875,0,0,0,.265-.624V23.1A2.855,2.855,0,0,1,9.423,23.584Z" transform="translate(0 -20.573)"/></g></g></svg>