<svg xmlns="http://www.w3.org/2000/svg" width="10" height="10" viewBox="0 0 10 10"><defs><style>.a{fill:;}</style></defs><path class="a" d="M0,170.293V175.8a.293.293,0,0,0,.293.293H.879V170H.293A.293.293,0,0,0,0,170.293Zm0,0" transform="translate(0 -166.68)"/><path class="a" d="M249.922,170H245v6.094h4.922a.293.293,0,0,0,.293-.293v-5.508A.293.293,0,0,0,249.922,170ZM246,174.512a.293.293,0,1,1,.293-.293A.293.293,0,0,1,246,174.512Zm0-1.172a.293.293,0,1,1,.293-.293A.293.293,0,0,1,246,173.34Zm0-1.172a.293.293,0,1,1,.293-.293A.293.293,0,0,1,246,172.168Zm1.172,2.344a.293.293,0,1,1,.293-.293A.293.293,0,0,1,247.168,174.512Zm0-1.172a.293.293,0,1,1,.293-.293A.293.293,0,0,1,247.168,173.34Zm0-1.172a.293.293,0,1,1,.293-.293A.293.293,0,0,1,247.168,172.168Zm1.172,2.344a.293.293,0,1,1,.293-.293A.293.293,0,0,1,248.34,174.512Zm0-1.172a.293.293,0,1,1,.293-.293A.293.293,0,0,1,248.34,173.34Zm0-1.172a.293.293,0,1,1,.293-.293A.293.293,0,0,1,248.34,172.168Zm0,0" transform="translate(-240.215 -166.68)"/><path class="a" d="M89.758.293A.293.293,0,0,0,89.465,0H83.293A.293.293,0,0,0,83,.293V2.34a1.455,1.455,0,0,1,.723-.191H84.7a1.464,1.464,0,0,1,1.171.586h3.887Zm0,0" transform="translate(-81.379)"/><path class="a" d="M76.855,140h-.977a.879.879,0,0,0-.879.879v5.508a.879.879,0,0,0,.879.879h.977a.879.879,0,0,0,.879-.879v-5.508A.879.879,0,0,0,76.855,140Zm0,0" transform="translate(-73.535 -137.266)"/></svg>