<svg xmlns="http://www.w3.org/2000/svg" width="21.999" height="22" viewBox="0 0 21.999 22"><path d="M21.962,17.046q-.093-.281-1.187-.828-.3-.172-.843-.469t-.992-.547q-.446-.25-.836-.484-.062-.047-.391-.274a4.391,4.391,0,0,0-.555-.336A1.023,1.023,0,0,0,16.712,14a1.3,1.3,0,0,0-.781.445,7.608,7.608,0,0,0-.859.969,9.42,9.42,0,0,1-.828.969,1.191,1.191,0,0,1-.719.445,1.063,1.063,0,0,1-.352-.078c-.14-.052-.247-.1-.321-.133s-.2-.109-.375-.219-.276-.169-.3-.18A16.42,16.42,0,0,1,8.51,13.5,16.411,16.411,0,0,1,5.791,9.827q-.016-.031-.18-.3t-.219-.375a3.386,3.386,0,0,1-.133-.32,1.057,1.057,0,0,1-.078-.352,1.191,1.191,0,0,1,.445-.719A9.41,9.41,0,0,1,6.6,6.937a7.6,7.6,0,0,0,.969-.859A1.3,1.3,0,0,0,8.01,5.3,1.02,1.02,0,0,0,7.9,4.851,4.343,4.343,0,0,0,7.564,4.3q-.227-.328-.274-.391-.234-.39-.484-.836T6.26,2.078q-.3-.547-.469-.844Q5.244.141,4.963.047A.875.875,0,0,0,4.635,0a5.147,5.147,0,0,0-1.1.156,6.187,6.187,0,0,0-1.07.328A4.189,4.189,0,0,0,.807,2.39,6.058,6.058,0,0,0,.01,5.3a6.034,6.034,0,0,0,.055.82,6.741,6.741,0,0,0,.2.9q.141.5.226.742t.32.867q.234.625.281.766a14.153,14.153,0,0,0,1.3,2.734,23.167,23.167,0,0,0,3.367,4.133,23.178,23.178,0,0,0,4.133,3.367,14.174,14.174,0,0,0,2.734,1.3q.141.047.765.281t.867.32q.242.086.742.227a6.8,6.8,0,0,0,.9.2,5.8,5.8,0,0,0,3.727-.742,4.186,4.186,0,0,0,1.906-1.657,6.154,6.154,0,0,0,.328-1.07,5.136,5.136,0,0,0,.156-1.1A.871.871,0,0,0,21.962,17.046Z" transform="translate(-0.01)"/></svg>