<svg xmlns="http://www.w3.org/2000/svg" width="16.696" height="16" viewBox="0 0 16.696 16"><defs><style>.a{fill:#4caf50;}</style></defs><g transform="translate(-10 -11.416)"><path class="a" d="M16.348,8.333c-4.6,0-8.348,3.06-8.348,6.819,0,3.367,2.971,6.19,6.981,6.726.272.057.642.181.736.413a1.708,1.708,0,0,1,.026.755l-.114.714c-.031.211-.167.831.729.452a26.935,26.935,0,0,0,6.565-4.883A6.051,6.051,0,0,0,24.7,15.153c0-3.76-3.746-6.82-8.348-6.82Zm-3.267,9.055h-1.66a.442.442,0,0,1-.438-.44v-3.34a.438.438,0,1,1,.877,0v2.9h1.222a.441.441,0,0,1,0,.882Zm1.716-.439a.438.438,0,1,1-.875,0v-3.34a.438.438,0,1,1,.875,0Zm3.993,0a.441.441,0,0,1-.3.417.454.454,0,0,1-.139.022A.427.427,0,0,1,18,17.213l-1.7-2.322v2.058a.437.437,0,1,1-.874,0v-3.34a.438.438,0,0,1,.3-.416.415.415,0,0,1,.135-.023.451.451,0,0,1,.344.177l1.712,2.331V13.609a.438.438,0,1,1,.877,0v3.34Zm2.682-2.112a.441.441,0,0,1,0,.883H20.251v.788h1.221a.441.441,0,0,1,0,.882h-1.66a.44.44,0,0,1-.436-.44v-3.34a.442.442,0,0,1,.438-.441h1.66a.441.441,0,0,1,0,.883H20.251v.788h1.221Z" transform="translate(2 3.083)"/></g></svg>