<svg xmlns="http://www.w3.org/2000/svg" width="9.999" height="10" viewBox="0 0 9.999 10"><defs><style>.a{fill:;}</style></defs><g transform="translate(-0.01)"><path class="a" d="M9.988,7.748q-.042-.128-.54-.376-.135-.078-.383-.213T8.614,6.91q-.2-.114-.38-.22l-.178-.124A2,2,0,0,0,7.8,6.413a.465.465,0,0,0-.2-.05.589.589,0,0,0-.355.2,3.458,3.458,0,0,0-.391.44,4.282,4.282,0,0,1-.376.44.541.541,0,0,1-.327.2.483.483,0,0,1-.16-.035c-.064-.024-.112-.044-.146-.06s-.09-.05-.17-.1l-.135-.082A7.463,7.463,0,0,1,3.873,6.136,7.459,7.459,0,0,1,2.638,4.467q-.007-.014-.082-.135t-.1-.17a1.539,1.539,0,0,1-.06-.146.481.481,0,0,1-.035-.16.541.541,0,0,1,.2-.327A4.277,4.277,0,0,1,3,3.153a3.456,3.456,0,0,0,.44-.391.589.589,0,0,0,.2-.355.464.464,0,0,0-.05-.2,1.974,1.974,0,0,0-.153-.252q-.1-.149-.124-.178Q3.213,1.6,3.1,1.4T2.851.945Q2.716.7,2.638.561q-.248-.5-.376-.54A.4.4,0,0,0,2.112,0a2.34,2.34,0,0,0-.5.071A2.812,2.812,0,0,0,1.125.22a1.9,1.9,0,0,0-.753.866A2.753,2.753,0,0,0,.01,2.407a2.743,2.743,0,0,0,.025.373,3.064,3.064,0,0,0,.089.408q.064.227.1.337t.146.394Q.479,4.2.5,4.268a6.433,6.433,0,0,0,.589,1.243A10.531,10.531,0,0,0,2.62,7.39,10.535,10.535,0,0,0,4.5,8.92a6.443,6.443,0,0,0,1.243.59q.064.021.348.128t.394.146q.11.039.337.1a3.091,3.091,0,0,0,.408.089,2.634,2.634,0,0,0,1.694-.337,1.9,1.9,0,0,0,.866-.753A2.8,2.8,0,0,0,9.938,8.4a2.335,2.335,0,0,0,.071-.5A.4.4,0,0,0,9.988,7.748Z"/></g></svg>